<svg width="366" height="76" viewBox="0 0 366 76" fill="none" xmlns="http://www.w3.org/2000/svg">
<g filter="url(#filter0_d_1339_7838)">
<rect x="4" y="4" width="358" height="68" rx="10" fill="white"/>
</g>
<g clip-path="url(#clip0_1339_7838)">
<path fill-rule="evenodd" clip-rule="evenodd" d="M120 36.7652C120 36.0185 119.934 35.3015 119.814 34.6123H110.204V38.684H115.696C115.46 39.9999 114.741 41.1145 113.66 41.8612V44.502H116.958C118.887 42.6694 120 39.9712 120 36.7652Z" fill="#4285F4"/>
<path fill-rule="evenodd" clip-rule="evenodd" d="M110.204 47.0525C112.959 47.0525 115.269 46.1095 116.957 44.502L113.659 41.8613C112.745 42.4929 111.577 42.8658 110.203 42.8658C107.545 42.8658 105.295 41.0144 104.493 38.5264H101.085V41.2534C102.764 44.6934 106.214 47.0525 110.204 47.0525Z" fill="#34A853"/>
<path fill-rule="evenodd" clip-rule="evenodd" d="M104.494 38.5262C104.29 37.8945 104.174 37.2202 104.174 36.526C104.174 35.8319 104.29 35.1575 104.494 34.5259V31.7988H101.085C100.394 33.2199 100 34.8273 100 36.526C100 38.2247 100.394 39.8321 101.085 41.2532L104.494 38.5262Z" fill="#FBBC05"/>
<path fill-rule="evenodd" clip-rule="evenodd" d="M110.204 30.1867C111.702 30.1867 113.047 30.7182 114.105 31.7605L117.032 28.7409C115.264 27.0432 112.954 26 110.204 26C106.214 26 102.764 28.3591 101.085 31.7991L104.494 34.5262C105.296 32.0381 107.546 30.1867 110.204 30.1867Z" fill="#EA4335"/>
</g>
<path d="M159.76 35.904V37.512H150.976V46.8H148.984V37.512H140.296V35.904H154.576C155.248 32.808 155.248 30.528 155.248 28.512V28.224H142.72V26.64H157.168V28.512C157.168 30.528 157.168 32.808 156.568 35.904H159.76ZM166.73 42.432V44.952H180.026V46.512H164.786V40.944H177.53V38.568H164.714V37.008H179.498V42.432H166.73ZM178.946 33.264H181.946V34.848H162.41V33.264H176.978C177.458 30.888 177.482 29.16 177.482 27.744H164.906V26.16H179.426V27.528C179.426 28.992 179.426 30.84 178.946 33.264ZM201.313 42.504H210.121V44.112H190.561V42.504H199.321V38.448H193.009V31.8H205.777V28.44H192.961V26.832H207.697V33.384H194.953V36.864H208.201V38.448H201.313V42.504ZM227.651 29.688V29.136H214.835V27.528H229.595V29.688C229.595 32.424 229.595 35.52 228.755 40.176L226.787 39.96C227.651 35.568 227.651 32.352 227.651 29.688ZM212.747 42H232.211V43.632H212.747V42ZM252.525 25.272V40.992H250.557V25.272H252.525ZM237.285 32.04C237.285 34.176 238.869 35.664 240.957 35.664C243.093 35.664 244.677 34.176 244.677 32.04C244.677 29.952 243.093 28.464 240.957 28.464C238.869 28.464 237.285 29.952 237.285 32.04ZM246.597 32.04C246.597 35.16 244.173 37.368 240.957 37.368C237.765 37.368 235.365 35.16 235.365 32.04C235.365 28.944 237.765 26.76 240.957 26.76C244.173 26.76 246.597 28.944 246.597 32.04ZM240.645 44.688H253.173V46.296H238.677V39.384H240.645V44.688Z" fill="#828282"/>
<defs>
<filter id="filter0_d_1339_7838" x="0" y="0" width="366" height="76" filterUnits="userSpaceOnUse" color-interpolation-filters="sRGB">
<feFlood flood-opacity="0" result="BackgroundImageFix"/>
<feColorMatrix in="SourceAlpha" type="matrix" values="0 0 0 0 0 0 0 0 0 0 0 0 0 0 0 0 0 0 127 0" result="hardAlpha"/>
<feOffset/>
<feGaussianBlur stdDeviation="2"/>
<feComposite in2="hardAlpha" operator="out"/>
<feColorMatrix type="matrix" values="0 0 0 0 0 0 0 0 0 0 0 0 0 0 0 0 0 0 0.25 0"/>
<feBlend mode="normal" in2="BackgroundImageFix" result="effect1_dropShadow_1339_7838"/>
<feBlend mode="normal" in="SourceGraphic" in2="effect1_dropShadow_1339_7838" result="shape"/>
</filter>
<clipPath id="clip0_1339_7838">
<rect width="20" height="21.0526" fill="white" transform="translate(100 26)"/>
</clipPath>
</defs>
</svg>
