<svg width="171" height="64" viewBox="0 0 171 64" fill="none" xmlns="http://www.w3.org/2000/svg">
<rect x="0.5" y="0.5" width="170" height="63" rx="9.5" fill="white" stroke="#017ACD"/>
<path d="M72.58 26.78H74.72V27C74.72 29.74 73.08 31.98 69.52 32.7L68.46 30.64C71.32 30.12 72.58 28.6 72.58 27V26.78ZM73.12 26.78H75.26V27C75.26 28.5 76.5 29.88 79.3 30.38L78.26 32.42C74.76 31.76 73.12 29.62 73.12 27V26.78ZM68.96 25.1H78.86V27.14H68.96V25.1ZM72.58 23.3H75.26V26.56H72.58V23.3ZM72.56 33.78H75.22V41.22H72.56V33.78ZM80.66 23.26H83.3V41.78H80.66V23.26ZM68.18 35.64L67.86 33.48C71.22 33.48 75.72 33.46 79.6 32.94L79.78 34.86C75.78 35.58 71.48 35.64 68.18 35.64ZM86.2784 37.44H103.038V39.62H86.2784V37.44ZM93.2384 33.32H95.8784V38.02H93.2384V33.32ZM93.1384 24.28H95.4584V25.62C95.4584 29.56 92.5984 33.04 87.7584 33.92L86.6584 31.7C90.8784 31.02 93.1384 28.18 93.1384 25.62V24.28ZM93.6584 24.28H95.9784V25.62C95.9784 28.24 98.2384 31.02 102.478 31.7L101.378 33.92C96.5184 33.02 93.6584 29.62 93.6584 25.62V24.28Z" fill="#017ACD"/>
</svg>
