<svg width="167" height="64" viewBox="0 0 167 64" fill="none" xmlns="http://www.w3.org/2000/svg">
<rect width="167" height="64" rx="10" fill="#017ACD"/>
<path d="M65.82 31.72H82.58V33.88H65.82V31.72ZM67.84 28.34H80.68V30.44H67.84V28.34ZM67.84 23.76H80.58V25.88H70.48V29.38H67.84V23.76ZM74.14 34.98C78.14 34.98 80.56 36.2 80.56 38.38C80.56 40.56 78.14 41.78 74.14 41.78C70.14 41.78 67.7 40.56 67.7 38.38C67.7 36.2 70.14 34.98 74.14 34.98ZM74.14 36.98C71.66 36.98 70.4 37.44 70.4 38.38C70.4 39.34 71.66 39.76 74.14 39.76C76.62 39.76 77.88 39.34 77.88 38.38C77.88 37.44 76.62 36.98 74.14 36.98ZM84.2584 33.18H101.038V35.3H84.2584V33.18ZM86.3184 23.62H98.9984V28.64H88.9784V30.64H86.3384V26.76H96.3784V25.64H86.3184V23.62ZM86.3384 29.84H99.3584V31.86H86.3384V29.84ZM91.3184 30.82H93.9784V34.34H91.3184V30.82ZM86.1184 36.34H99.1184V41.72H96.4584V38.44H86.1184V36.34Z" fill="white"/>
</svg>
