<svg width="178" height="76" viewBox="0 0 178 76" fill="none" xmlns="http://www.w3.org/2000/svg">
<g filter="url(#filter0_d_1339_7835)">
<rect x="4" y="4" width="170" height="68" rx="10" fill="white"/>
<rect x="4.5" y="4.5" width="169" height="67" rx="9.5" stroke="#017ACD"/>
</g>
<path d="M72.58 37.7L71.52 35.66C74.28 35.14 75.54 33.72 75.62 32.16H72.02V30.12H75.62V28.32H78.26V30.12H81.86V32.16H78.26C78.34 33.62 79.6 34.9 82.28 35.38L81.26 37.42C79.2 37.02 77.82 36.1 77 34.9C76.18 36.24 74.72 37.26 72.58 37.7ZM82.6 37.94L82.76 39.84C81.28 40.1 79.74 40.28 78.24 40.4V46.16H75.6V40.56C74.04 40.62 72.56 40.62 71.24 40.62L70.92 38.48C74.28 38.48 78.74 38.46 82.6 37.94ZM83.64 28.3H86.28V46.7H83.64V28.3ZM105.438 36.7L104.358 38.88C101.118 38.3 98.7584 36.58 97.5584 34.3C96.3584 36.56 94.0184 38.3 90.7984 38.88L89.7184 36.7C93.8784 36.02 96.1584 33.2 96.1584 30.64V29.32H98.9784V30.64C98.9784 33.26 101.238 36.02 105.438 36.7ZM98.8984 42.42H105.998V44.54H89.3184V42.42H96.2584V38.3H98.8984V42.42Z" fill="#017ACD"/>
<defs>
<filter id="filter0_d_1339_7835" x="0" y="0" width="178" height="76" filterUnits="userSpaceOnUse" color-interpolation-filters="sRGB">
<feFlood flood-opacity="0" result="BackgroundImageFix"/>
<feColorMatrix in="SourceAlpha" type="matrix" values="0 0 0 0 0 0 0 0 0 0 0 0 0 0 0 0 0 0 127 0" result="hardAlpha"/>
<feOffset/>
<feGaussianBlur stdDeviation="2"/>
<feComposite in2="hardAlpha" operator="out"/>
<feColorMatrix type="matrix" values="0 0 0 0 0 0 0 0 0 0 0 0 0 0 0 0 0 0 0.25 0"/>
<feBlend mode="normal" in2="BackgroundImageFix" result="effect1_dropShadow_1339_7835"/>
<feBlend mode="normal" in="SourceGraphic" in2="effect1_dropShadow_1339_7835" result="shape"/>
</filter>
</defs>
</svg>
