<svg width="350" height="68" viewBox="0 0 350 68" fill="none" xmlns="http://www.w3.org/2000/svg">
<g filter="url(#filter0_d_1291_40907)">
<path d="M12 16C12 11.5817 15.5817 8 20 8H175V52H20C15.5817 52 12 48.4183 12 44V16Z" fill="#017ACD"/>
<path d="M72.264 23.6H79.24C79.24 27.568 76.776 30.304 72.424 31.52L71.576 29.824C74.792 28.96 76.6 27.296 76.92 25.28H72.264V23.6ZM78.504 35.744C80.296 35.744 81.368 35.28 81.368 34.368C81.368 33.456 80.296 32.992 78.504 32.992C76.712 32.992 75.64 33.456 75.64 34.368C75.64 35.28 76.712 35.744 78.504 35.744ZM78.504 31.344C81.48 31.344 83.448 32.512 83.448 34.368C83.448 36.224 81.48 37.392 78.504 37.392C75.528 37.392 73.56 36.224 73.56 34.368C73.56 32.512 75.528 31.344 78.504 31.344ZM83.288 26.08H85.24V27.824H83.288V31.152H81.176V22.624H83.288V26.08ZM90.4188 32.272C91.5068 32.272 92.2588 31.104 92.2588 28.912C92.2588 26.736 91.5068 25.568 90.4188 25.568C89.3148 25.568 88.5788 26.736 88.5788 28.912C88.5788 31.104 89.3148 32.272 90.4188 32.272ZM90.4188 23.664C92.6428 23.664 94.2908 25.68 94.2908 28.912C94.2908 32.16 92.6428 34.192 90.4188 34.192C88.1788 34.192 86.5468 32.16 86.5468 28.912C86.5468 25.68 88.1788 23.664 90.4188 23.664ZM100.147 28.192V29.936H98.0028V37.376H95.8908V22.64H98.0028V28.192H100.147ZM106.942 25.792V26.608C106.942 29.008 108.126 31.552 110.59 32.576L109.438 34.24C107.726 33.504 106.558 32.064 105.902 30.288C105.246 32.208 104.062 33.824 102.334 34.608L101.134 32.928C103.598 31.824 104.798 29.12 104.798 26.608V25.792H101.726V24.048H109.982V25.792H106.942ZM111.342 22.64H113.454V37.376H111.342V22.64Z" fill="white"/>
<path d="M175 8H330C334.418 8 338 11.5817 338 16V44C338 48.4183 334.418 52 330 52H175V8Z" fill="white"/>
<path d="M246.16 32.368L244.048 32.128C244.608 29.344 244.64 27.296 244.64 25.584H236.048V23.904H246.752V25.312C246.752 27.152 246.752 29.232 246.16 32.368ZM241.52 33.904H248.032V35.6H234.704V33.904H239.408V28.832H241.52V33.904ZM251.643 27.024C251.643 28.144 252.459 28.816 253.579 28.816C254.683 28.816 255.515 28.144 255.515 27.024C255.515 25.888 254.683 25.216 253.579 25.216C252.459 25.216 251.643 25.888 251.643 27.024ZM257.563 27.024C257.563 29.088 255.835 30.592 253.579 30.592C251.307 30.592 249.579 29.088 249.579 27.024C249.579 24.928 251.307 23.44 253.579 23.44C255.835 23.44 257.563 24.928 257.563 27.024ZM256.251 35.728C258.123 35.728 259.131 35.328 259.131 34.464C259.131 33.616 258.123 33.2 256.251 33.2C254.363 33.2 253.355 33.616 253.355 34.464C253.355 35.328 254.363 35.728 256.251 35.728ZM256.251 31.552C259.291 31.552 261.227 32.64 261.227 34.464C261.227 36.304 259.291 37.376 256.251 37.376C253.195 37.376 251.259 36.304 251.259 34.464C251.259 32.64 253.195 31.552 256.251 31.552ZM262.955 26.176H261.067V27.648H262.955V29.376H261.067V31.232H258.955V22.64H261.067V24.448H262.955V26.176ZM274.342 22.624H276.454V37.408H274.342V22.624ZM268.534 23.664C270.758 23.664 272.406 25.68 272.406 28.912C272.406 32.16 270.758 34.192 268.534 34.192C266.31 34.192 264.662 32.16 264.662 28.912C264.662 25.68 266.31 23.664 268.534 23.664ZM268.534 25.568C267.446 25.568 266.694 26.736 266.694 28.912C266.694 31.104 267.446 32.272 268.534 32.272C269.622 32.272 270.374 31.104 270.374 28.912C270.374 26.736 269.622 25.568 268.534 25.568Z" fill="#828282"/>
</g>
<defs>
<filter id="filter0_d_1291_40907" x="0" y="0" width="350" height="68" filterUnits="userSpaceOnUse" color-interpolation-filters="sRGB">
<feFlood flood-opacity="0" result="BackgroundImageFix"/>
<feColorMatrix in="SourceAlpha" type="matrix" values="0 0 0 0 0 0 0 0 0 0 0 0 0 0 0 0 0 0 127 0" result="hardAlpha"/>
<feOffset dy="4"/>
<feGaussianBlur stdDeviation="6"/>
<feComposite in2="hardAlpha" operator="out"/>
<feColorMatrix type="matrix" values="0 0 0 0 0 0 0 0 0 0 0 0 0 0 0 0 0 0 0.16 0"/>
<feBlend mode="normal" in2="BackgroundImageFix" result="effect1_dropShadow_1291_40907"/>
<feBlend mode="normal" in="SourceGraphic" in2="effect1_dropShadow_1291_40907" result="shape"/>
</filter>
</defs>
</svg>
