<svg width="350" height="68" viewBox="0 0 350 68" fill="none" xmlns="http://www.w3.org/2000/svg">
<g filter="url(#filter0_d_1291_40907)">
<path d="M12 16C12 11.5817 15.5817 8 20 8H175V52H20C15.5817 52 12 48.4183 12 44V16Z" fill="white"/>
<path d="M81.176 22.608H83.304V31.184H81.176V22.608ZM82.712 26.064H85.272V27.808H82.712V26.064ZM76.936 23.568H79.224C79.224 27.552 76.76 30.32 72.392 31.536L71.528 29.84C75.096 28.864 76.936 26.928 76.936 24.64V23.568ZM72.232 23.568H78.232V25.28H72.232V23.568ZM78.504 31.376C81.496 31.376 83.464 32.544 83.464 34.4C83.464 36.272 81.496 37.44 78.504 37.44C75.512 37.44 73.512 36.272 73.512 34.4C73.512 32.544 75.512 31.376 78.504 31.376ZM78.504 33.024C76.696 33.024 75.624 33.504 75.624 34.4C75.624 35.312 76.696 35.792 78.504 35.792C80.312 35.792 81.384 35.312 81.384 34.4C81.384 33.504 80.312 33.024 78.504 33.024ZM90.3868 23.632C92.6428 23.632 94.2748 25.68 94.2748 28.912C94.2748 32.176 92.6428 34.224 90.3868 34.224C88.1308 34.224 86.4988 32.176 86.4988 28.912C86.4988 25.68 88.1308 23.632 90.3868 23.632ZM90.3868 25.568C89.2828 25.568 88.5468 26.736 88.5468 28.912C88.5468 31.12 89.2828 32.304 90.3868 32.304C91.4908 32.304 92.2428 31.12 92.2428 28.912C92.2428 26.736 91.4908 25.568 90.3868 25.568ZM95.8908 22.608H98.0348V37.424H95.8908V22.608ZM97.5548 28.192H100.179V29.952H97.5548V28.192ZM104.766 24.944H106.462V26.608C106.462 30.032 105.07 33.376 102.286 34.64L101.086 32.96C103.566 31.856 104.766 29.12 104.766 26.608V24.944ZM105.246 24.944H106.926V26.608C106.926 29.008 108.11 31.568 110.59 32.592L109.438 34.272C106.622 33.056 105.246 29.904 105.246 26.608V24.944ZM101.678 24.032H109.982V25.776H101.678V24.032ZM111.358 22.608H113.502V37.424H111.358V22.608Z" fill="#017ACD"/>
<path d="M175 8H330C334.418 8 338 11.5817 338 16V44C338 48.4183 334.418 52 330 52H175V8Z" fill="#017ACD"/>
<path d="M236.016 23.856H245.408V25.568H236.016V23.856ZM234.656 33.92H248.048V35.648H234.656V33.92ZM239.392 28.832H241.52V34.768H239.392V28.832ZM244.64 23.856H246.768V25.28C246.768 27.136 246.768 29.216 246.176 32.384L244.048 32.144C244.64 29.2 244.64 27.056 244.64 25.28V23.856ZM260.427 24.432H262.987V26.16H260.427V24.432ZM260.427 27.648H262.987V29.376H260.427V27.648ZM253.547 23.408C255.835 23.408 257.579 24.912 257.579 27.008C257.579 29.088 255.835 30.592 253.547 30.592C251.259 30.592 249.515 29.088 249.515 27.008C249.515 24.912 251.259 23.408 253.547 23.408ZM253.547 25.184C252.427 25.184 251.595 25.872 251.595 27.008C251.595 28.16 252.427 28.816 253.547 28.816C254.667 28.816 255.499 28.16 255.499 27.008C255.499 25.872 254.667 25.184 253.547 25.184ZM258.955 22.608H261.083V31.248H258.955V22.608ZM256.251 31.568C259.307 31.568 261.259 32.672 261.259 34.496C261.259 36.336 259.307 37.424 256.251 37.424C253.179 37.424 251.227 36.336 251.227 34.496C251.227 32.672 253.179 31.568 256.251 31.568ZM256.251 33.248C254.363 33.248 253.339 33.648 253.339 34.496C253.339 35.36 254.363 35.76 256.251 35.76C258.139 35.76 259.147 35.36 259.147 34.496C259.147 33.648 258.139 33.248 256.251 33.248ZM274.358 22.592H276.502V37.456H274.358V22.592ZM268.518 23.632C270.758 23.632 272.406 25.68 272.406 28.912C272.406 32.176 270.758 34.224 268.518 34.224C266.278 34.224 264.63 32.176 264.63 28.912C264.63 25.68 266.278 23.632 268.518 23.632ZM268.518 25.568C267.414 25.568 266.662 26.736 266.662 28.912C266.662 31.12 267.414 32.304 268.518 32.304C269.622 32.304 270.358 31.12 270.358 28.912C270.358 26.736 269.622 25.568 268.518 25.568Z" fill="white"/>
</g>
<defs>
<filter id="filter0_d_1291_40907" x="0" y="0" width="350" height="68" filterUnits="userSpaceOnUse" color-interpolation-filters="sRGB">
<feFlood flood-opacity="0" result="BackgroundImageFix"/>
<feColorMatrix in="SourceAlpha" type="matrix" values="0 0 0 0 0 0 0 0 0 0 0 0 0 0 0 0 0 0 127 0" result="hardAlpha"/>
<feOffset dy="4"/>
<feGaussianBlur stdDeviation="6"/>
<feComposite in2="hardAlpha" operator="out"/>
<feColorMatrix type="matrix" values="0 0 0 0 0 0 0 0 0 0 0 0 0 0 0 0 0 0 0.16 0"/>
<feBlend mode="normal" in2="BackgroundImageFix" result="effect1_dropShadow_1291_40907"/>
<feBlend mode="normal" in="SourceGraphic" in2="effect1_dropShadow_1291_40907" result="shape"/>
</filter>
</defs>
</svg>
