<svg width="366" height="76" viewBox="0 0 366 76" fill="none" xmlns="http://www.w3.org/2000/svg">
<g filter="url(#filter0_d_1291_36417)">
<rect x="4" y="4" width="358" height="68" rx="10" fill="#03C75A"/>
</g>
<path d="M144.56 31.46V41.52C146.48 41.5 148.28 41.38 150.36 40.96L150.58 42.34C148.24 42.82 146.24 42.94 144.08 42.94H142.94V31.46H144.56ZM151.92 35.56V29.98H153.48V46.58H151.92V36.92H147.92V35.56H151.92ZM155.74 29.52H157.3V47.48H155.74V29.52ZM173.558 29.54H175.198V47.52H173.558V29.54ZM165.738 30.92C168.398 30.92 170.298 33.36 170.298 37.18C170.298 41 168.398 43.44 165.738 43.44C163.078 43.44 161.178 41 161.178 37.18C161.178 33.36 163.078 30.92 165.738 30.92ZM165.738 32.4C163.978 32.4 162.738 34.28 162.738 37.18C162.738 40.1 163.978 41.98 165.738 41.98C167.478 41.98 168.718 40.1 168.718 37.18C168.718 34.28 167.478 32.4 165.738 32.4ZM186.317 41.64V36.92H181.317V41.64H186.317ZM192.117 29.54H193.757V47.52H192.117V37.52H187.917V42.98H179.697V30.96H181.317V35.62H186.317V30.96H187.917V36.2H192.117V29.54ZM206.375 43.92H213.715V45.26H197.415V43.92H204.715V40.54H199.455V35H210.095V32.2H199.415V30.86H211.695V36.32H201.075V39.22H212.115V40.54H206.375V43.92ZM231.229 34.54V30.02H232.789V46.56H231.229V40.36H227.989V39.02H231.229V35.86H228.269C227.429 38.88 225.489 41.58 222.089 43.6L221.129 42.44C224.989 40.14 226.909 36.92 227.189 33.16H221.929V31.82H228.809C228.809 32.74 228.729 33.64 228.569 34.54H231.229ZM234.829 29.54H236.389V47.46H234.829V29.54ZM254.848 35.44L254.228 36.76C251.488 36.3 248.848 34.88 247.708 32.82C246.588 34.88 243.948 36.3 241.208 36.76L240.588 35.44C243.768 35 246.868 33 246.868 30.62V29.82H248.548V30.62C248.548 33 251.648 35 254.848 35.44ZM241.408 42.96V41.62H253.828V47.5H252.188V42.96H241.408ZM248.528 38.54H255.888V39.88H239.608V38.54H246.888V35.8H248.528V38.54ZM263.326 42.12C264.966 42.12 266.146 40.96 266.146 39.36C266.146 37.74 264.966 36.58 263.326 36.58C261.706 36.58 260.526 37.74 260.526 39.36C260.526 40.96 261.706 42.12 263.326 42.12ZM263.326 35.22C265.886 35.22 267.706 36.94 267.706 39.36C267.706 41.8 265.886 43.48 263.326 43.48C260.806 43.48 258.986 41.8 258.986 39.36C258.986 36.94 260.806 35.22 263.326 35.22ZM264.126 29.76V32.42H268.546V33.74H257.966V32.42H262.486V29.76H264.126ZM274.826 36.92V38.3H271.886V47.48H270.246V29.56H271.886V36.92H274.826ZM277.584 31.48H285.984C285.984 36.66 283.604 41.22 277.644 44.14L276.764 42.8C281.584 40.5 283.984 37.06 284.324 32.8H277.584V31.48ZM289.604 29.54H291.244V47.48H289.604V29.54Z" fill="white"/>
<path d="M115.767 26V39.1192L106.268 26H96V52H106.233V38.8808L115.732 52H126V26H115.767Z" fill="white"/>
<g clip-path="url(#clip0_1291_36417)">
<path d="M304.92 4H61.08C58.2744 4 56 6.28335 56 9.1V66.9C56 69.7167 58.2744 72 61.08 72H304.92C307.726 72 310 69.7167 310 66.9V9.1C310 6.28335 307.726 4 304.92 4Z" fill="#03C75A"/>
<path d="M113.929 38.7138L106.326 27.7998H100.026V48.1998H106.63V37.2858L114.217 48.1998H120.516V27.7998H113.929V38.7138Z" fill="white"/>
<path d="M138.753 41.8589V27.8679H140.836V40.0229H141.615C142.919 40.0229 144.104 39.9379 145.188 39.7509C146.271 39.5639 147.152 39.3939 147.863 39.2409V40.9919C147.491 41.1109 147.033 41.2129 146.542 41.3149C146.034 41.4169 145.492 41.5189 144.917 41.5869C144.341 41.6549 143.748 41.7399 143.156 41.7739C142.563 41.8249 141.97 41.8419 141.395 41.8419H138.77L138.753 41.8589ZM149.302 26.4739H151.317V47.4179H149.302V34.9399H144.612V33.1549H149.302V26.4739ZM156.143 47.9789H154.111V26.2529H156.143V47.9789Z" fill="white"/>
<path d="M169.995 35.2463C169.995 36.5213 169.859 37.6433 169.571 38.6123C169.283 39.5813 168.894 40.3973 168.403 41.0603C167.912 41.7063 167.319 42.1993 166.625 42.5393C165.948 42.8793 165.219 43.0323 164.441 43.0323C163.662 43.0323 162.933 42.8623 162.273 42.5393C161.596 42.1993 161.003 41.7063 160.495 41.0603C159.987 40.4143 159.581 39.5983 159.293 38.6123C159.005 37.6263 158.853 36.5043 158.853 35.2463C158.853 33.9883 159.005 32.8493 159.293 31.8803C159.581 30.9113 159.987 30.0953 160.495 29.4493C161.003 28.8033 161.596 28.3103 162.273 27.9703C162.95 27.6303 163.679 27.4773 164.441 27.4773C165.203 27.4773 165.948 27.6473 166.625 27.9703C167.302 28.2933 167.895 28.8033 168.403 29.4493C168.894 30.0953 169.3 30.9113 169.571 31.8803C169.859 32.8493 169.995 33.9713 169.995 35.2463ZM167.912 35.2463C167.912 34.3623 167.827 33.5463 167.675 32.8153C167.522 32.0843 167.285 31.4553 166.997 30.9453C166.71 30.4183 166.337 30.0273 165.914 29.7383C165.473 29.4493 164.982 29.3133 164.424 29.3133C163.865 29.3133 163.374 29.4493 162.933 29.7383C162.493 30.0273 162.138 30.4183 161.85 30.9453C161.562 31.4723 161.325 32.1013 161.172 32.8153C161.02 33.5463 160.935 34.3453 160.935 35.2463C160.935 36.1473 161.02 36.9463 161.172 37.6773C161.325 38.4083 161.562 39.0373 161.85 39.5473C162.138 40.0743 162.51 40.4823 162.933 40.7713C163.374 41.0603 163.865 41.2133 164.424 41.2133C164.982 41.2133 165.473 41.0603 165.914 40.7713C166.354 40.4823 166.71 40.0743 166.997 39.5473C167.285 39.0203 167.522 38.3913 167.675 37.6773C167.827 36.9463 167.912 36.1473 167.912 35.2463ZM174.076 26.2363H176.108V47.9623H174.076V26.2363Z" fill="white"/>
<path d="M189.315 33.8859H194.395V26.2529H196.427V47.9789H194.395V35.6709H189.315V42.0459H179.646V27.8849H181.763V33.2569H187.317V27.8849H189.332V33.8859H189.315ZM187.317 35.0079H181.729V40.3119H187.317V35.0079Z" fill="white"/>
<path d="M207.604 39.2928V32.7308H219.101V29.5858H207.587V27.8008H221.15V34.4138H209.653V37.5588H221.862V39.2928H215.444V43.1688H224.452V44.9028H204.302V43.1688H213.31V39.2928H207.621H207.604Z" fill="white"/>
<path d="M239.489 30.0274H227.686V28.1914H241.572C241.538 29.3644 241.487 30.5884 241.402 31.8804C241.318 33.1554 241.199 34.4474 241.081 35.7224C240.945 37.0144 240.793 38.2724 240.623 39.4964C240.454 40.7204 240.285 41.8594 240.115 42.9134H244.738V44.6474H224.604V42.9134H238.016C238.405 40.9584 238.744 38.8674 239.015 36.6404C239.286 34.4134 239.438 32.2034 239.489 30.0444V30.0274Z" fill="white"/>
<path d="M245.687 32.7133C245.687 31.9143 245.822 31.1833 246.11 30.5033C246.398 29.8233 246.787 29.2283 247.295 28.7353C247.803 28.2423 248.396 27.8513 249.073 27.5793C249.751 27.3073 250.496 27.1543 251.291 27.1543C252.087 27.1543 252.849 27.2903 253.544 27.5793C254.238 27.8513 254.831 28.2423 255.339 28.7353C255.847 29.2283 256.236 29.8063 256.524 30.5033C256.812 31.1833 256.947 31.9313 256.947 32.7133C256.947 33.4953 256.812 34.2093 256.524 34.8723C256.236 35.5353 255.847 36.1133 255.339 36.5893C254.831 37.0823 254.238 37.4563 253.544 37.7283C252.849 38.0003 252.104 38.1533 251.291 38.1533C250.479 38.1533 249.751 38.0173 249.073 37.7283C248.396 37.4393 247.803 37.0653 247.295 36.5893C246.787 36.1133 246.398 35.5353 246.11 34.8723C245.822 34.2093 245.687 33.4783 245.687 32.7133ZM247.854 32.6963C247.854 33.2233 247.939 33.6993 248.108 34.1583C248.277 34.6173 248.514 34.9913 248.819 35.3143C249.124 35.6373 249.497 35.8753 249.92 36.0623C250.343 36.2493 250.817 36.3343 251.342 36.3343C251.867 36.3343 252.341 36.2493 252.765 36.0623C253.188 35.8753 253.561 35.6373 253.865 35.3143C254.17 34.9913 254.407 34.6173 254.593 34.1583C254.78 33.6993 254.847 33.2233 254.847 32.6963C254.847 32.1353 254.763 31.6423 254.593 31.1833C254.424 30.7243 254.187 30.3333 253.865 29.9933C253.544 29.6533 253.188 29.3983 252.765 29.2283C252.341 29.0413 251.867 28.9563 251.342 28.9563C250.817 28.9563 250.343 29.0413 249.92 29.2283C249.497 29.4153 249.124 29.6703 248.819 29.9933C248.514 30.3333 248.277 30.7243 248.108 31.1833C247.939 31.6423 247.854 32.1523 247.854 32.6963ZM263.416 47.5373H249.412V40.8053H251.495V45.7523H263.416V47.5373ZM262.908 41.9443H260.893V26.2363H262.908V41.9443Z" fill="white"/>
</g>
<defs>
<filter id="filter0_d_1291_36417" x="0" y="0" width="366" height="76" filterUnits="userSpaceOnUse" color-interpolation-filters="sRGB">
<feFlood flood-opacity="0" result="BackgroundImageFix"/>
<feColorMatrix in="SourceAlpha" type="matrix" values="0 0 0 0 0 0 0 0 0 0 0 0 0 0 0 0 0 0 127 0" result="hardAlpha"/>
<feOffset/>
<feGaussianBlur stdDeviation="2"/>
<feComposite in2="hardAlpha" operator="out"/>
<feColorMatrix type="matrix" values="0 0 0 0 0 0 0 0 0 0 0 0 0 0 0 0 0 0 0.25 0"/>
<feBlend mode="normal" in2="BackgroundImageFix" result="effect1_dropShadow_1291_36417"/>
<feBlend mode="normal" in="SourceGraphic" in2="effect1_dropShadow_1291_36417" result="shape"/>
</filter>
<clipPath id="clip0_1291_36417">
<rect width="254" height="68" fill="white" transform="translate(56 4)"/>
</clipPath>
</defs>
</svg>
