<svg width="168" height="46" viewBox="0 0 168 46" fill="none" xmlns="http://www.w3.org/2000/svg">
<g filter="url(#filter0_d_1291_61147)">
<path d="M5 23C5 13.0589 13.0589 5 23 5H145C154.941 5 163 13.0589 163 23C163 32.9411 154.941 41 145 41H23C13.0589 41 5 32.9411 5 23Z" fill="white"/>
<path d="M5.5 23C5.5 13.335 13.335 5.5 23 5.5H145C154.665 5.5 162.5 13.335 162.5 23C162.5 32.665 154.665 40.5 145 40.5H23C13.335 40.5 5.5 32.665 5.5 23Z" stroke="#46C0FE"/>
</g>
<path d="M60.06 15.04V25C62.38 24.94 64.88 24.74 67.46 24.24L67.72 26.4C64.66 27.04 61.7 27.2 59.02 27.2H57.42V15.04H60.06ZM73.86 20.24V22.42H71.28V31.68H68.64V13.28H71.28V20.24H73.86ZM76.1584 15.18H84.8384C84.8384 20.7 82.7384 25.44 76.6184 28.54L75.1384 26.52C79.4184 24.32 81.6984 21.4 82.1784 17.32H76.1584V15.18ZM92.3184 20.32V22.5H89.7384V31.68H87.0984V13.28H89.7384V20.32H92.3184ZM94.7969 15.2H103.637C103.637 20.84 101.737 25.44 95.1969 28.6L93.8169 26.52C98.5169 24.26 100.557 21.38 100.937 17.3H94.7969V15.2ZM106.457 13.28H109.117V31.7H106.457V13.28Z" fill="#017ACD"/>
<defs>
<filter id="filter0_d_1291_61147" x="0" y="0" width="168" height="46" filterUnits="userSpaceOnUse" color-interpolation-filters="sRGB">
<feFlood flood-opacity="0" result="BackgroundImageFix"/>
<feColorMatrix in="SourceAlpha" type="matrix" values="0 0 0 0 0 0 0 0 0 0 0 0 0 0 0 0 0 0 127 0" result="hardAlpha"/>
<feOffset/>
<feGaussianBlur stdDeviation="2.5"/>
<feComposite in2="hardAlpha" operator="out"/>
<feColorMatrix type="matrix" values="0 0 0 0 0 0 0 0 0 0 0 0 0 0 0 0 0 0 0.4 0"/>
<feBlend mode="normal" in2="BackgroundImageFix" result="effect1_dropShadow_1291_61147"/>
<feBlend mode="normal" in="SourceGraphic" in2="effect1_dropShadow_1291_61147" result="shape"/>
</filter>
</defs>
</svg>
