<svg width="100" height="44" viewBox="0 0 100 44" fill="none" xmlns="http://www.w3.org/2000/svg">
<rect y="4.40039" width="100" height="33" rx="15" fill="#017ACD"/>
<path d="M24.74 16.06H27.62V11.3H30.26V24.74H27.62V18.2H24.74V16.06ZM25.96 20.3L24.68 22.36C22.66 21.7 21.3 20.38 20.5 18.72C19.68 20.54 18.24 22 16.1 22.72L14.76 20.62C17.78 19.64 19.1 17.22 19.1 14.9V14.64H15.48V12.54H25.38V14.64H21.8V14.88C21.8 17.06 23.06 19.32 25.96 20.3ZM20.76 27.3H30.68V29.4H18.12V23.62H20.76V27.3ZM39.0384 16.5V16.88C39.0384 19.66 39.9784 22.48 42.5784 23.86L41.1584 25.82C39.5384 24.96 38.4784 23.5 37.8184 21.74C37.1984 23.66 36.1184 25.3 34.4584 26.26L32.9784 24.28C35.5984 22.74 36.5384 19.72 36.5384 16.88V16.5H33.6584V14.38H36.5384V11.9H39.0384V14.38H41.8584V16.5H39.0384ZM42.8984 18.26V11.6H45.3584V28.88H42.8984V20.4H40.7984V18.26H42.8984ZM46.6184 11.28H49.1184V29.7H46.6184V11.28ZM56.1569 17.38V19.96H64.0369V17.38H56.1569ZM61.4169 25.44H68.4569V27.58H51.7769V25.44H58.7769V22.06H53.5369V12.44H56.1569V15.3H64.0369V12.44H66.6369V22.06H61.4169V25.44ZM71.2553 13.2H80.0953C80.0953 18.84 78.1953 23.44 71.6553 26.6L70.2753 24.52C74.9753 22.26 77.0153 19.38 77.3953 15.3H71.2553V13.2ZM82.9153 11.28H85.5753V29.7H82.9153V11.28Z" fill="white"/>
</svg>
