<svg width="100" height="41" viewBox="0 0 100 41" fill="none" xmlns="http://www.w3.org/2000/svg">
<rect y="1" width="100" height="40" rx="20" fill="#017ACD"/>
<path d="M24.28 18.06L24.54 20.16C22.28 20.64 20.18 20.76 16.1 20.76H14.56V12.38H22.76V14.48H17.18V18.64C20.46 18.62 22.28 18.48 24.28 18.06ZM25.74 27.38V25.76H18.94V27.38H25.74ZM25.74 23.74V22.06H28.36V29.48H16.34V22.06H18.94V23.74H25.74ZM30.8 15.26V17.42H28.36V21.16H25.72V11.28H28.36V15.26H30.8ZM45.0784 16.48H41.7984V18.32H45.0784V16.48ZM39.2184 19.94V17.34H35.7184V19.94H39.2184ZM41.7984 20.42V22.04H33.0984V12.52H35.7184V15.32H39.2184V12.52H41.7984V14.36H45.0784V11.3H47.7184V24.9H45.0784V20.42H41.7984ZM38.1984 27.3H48.1184V29.4H35.5584V23.58H38.1984V27.3ZM56.0969 23.8C57.3369 23.8 58.2369 22.96 58.2369 21.54C58.2369 20.16 57.3369 19.3 56.0969 19.3C54.8569 19.3 53.9369 20.16 53.9369 21.56C53.9369 22.96 54.8569 23.8 56.0969 23.8ZM56.0969 17.16C58.7569 17.16 60.7369 18.98 60.7369 21.54C60.7369 24.14 58.7569 25.96 56.0969 25.96C53.4169 25.96 51.4169 24.14 51.4169 21.54C51.4169 18.98 53.4169 17.16 56.0969 17.16ZM57.3969 11.62V14.02H61.3969V16.12H50.6769V14.02H54.7569V11.62H57.3969ZM67.8769 18.5V20.68H65.2369V29.72H62.5969V11.3H65.2369V18.5H67.8769ZM70.2553 13.2H79.0953C79.0953 18.84 77.1953 23.44 70.6553 26.6L69.2753 24.52C73.9753 22.26 76.0153 19.38 76.3953 15.3H70.2553V13.2ZM81.9153 11.28H84.5753V29.7H81.9153V11.28Z" fill="white"/>
</svg>
