<svg width="48" height="48" viewBox="0 0 48 48" fill="none" xmlns="http://www.w3.org/2000/svg">
<path d="M34 25.5C34.8284 25.5 35.5 24.8284 35.5 24C35.5 23.1716 34.8284 22.5 34 22.5V25.5ZM12.9393 22.9393C12.3536 23.5251 12.3536 24.4749 12.9393 25.0607L22.4853 34.6066C23.0711 35.1924 24.0208 35.1924 24.6066 34.6066C25.1924 34.0208 25.1924 33.0711 24.6066 32.4853L16.1213 24L24.6066 15.5147C25.1924 14.9289 25.1924 13.9792 24.6066 13.3934C24.0208 12.8076 23.0711 12.8076 22.4853 13.3934L12.9393 22.9393ZM34 22.5L14 22.5V25.5L34 25.5V22.5Z" fill="#017ACD"/>
</svg>
