<svg width="61" height="61" viewBox="0 0 61 61" fill="none" xmlns="http://www.w3.org/2000/svg">
<path d="M59.4846 34.0485C55.2359 38.3285 50.9872 42.6109 46.7398 46.8921C42.7284 50.9363 38.7132 54.9743 34.7107 59.0261C33.1354 60.6203 31.3064 61.4672 29.0861 60.73C28.243 60.4489 27.4175 59.8919 26.7788 59.263C19.0046 51.6118 11.2684 43.9228 3.52076 36.2452C2.87955 35.6088 2.22697 34.9837 1.5908 34.3409C0.111459 32.8487 -0.404796 31.0831 0.339924 29.0969C1.0796 27.1245 2.53243 25.9096 4.65552 25.5807C6.22574 25.3387 7.57381 25.8454 8.68079 26.933C12.4902 30.6722 16.2782 34.4329 20.0725 38.1873C23.5096 41.5863 26.9454 44.9865 30.3825 48.3855C30.4393 48.441 30.5036 48.4876 30.5301 48.5103C32.2165 46.8568 33.8965 45.2436 35.54 43.5939C41.0736 38.0399 46.5947 32.4757 52.1169 26.9116C53.643 25.374 55.4442 24.8661 57.4714 25.6488C59.597 26.4692 60.8062 28.0975 60.9829 30.3723C61.094 31.8052 60.4957 33.029 59.4846 34.0485Z" fill="#017ACD"/>
<path d="M59.3695 8.9058C55.3392 12.9576 51.3101 17.0119 47.2823 21.0675C43.0336 25.3474 38.7849 29.6274 34.54 33.9111C33.072 35.3944 31.3162 36.0838 29.2815 35.5116C28.432 35.2734 27.5737 34.7403 26.9388 34.1177C20.9785 28.2814 15.0662 22.3959 9.13871 16.5242C6.67609 14.0856 4.21851 11.6406 1.742 9.21457C0.0114699 7.51949 -0.442936 5.50177 0.484809 3.43239C1.41129 1.36427 3.56972 0.0661762 5.82029 0.270342C6.99543 0.376206 7.97746 0.934511 8.80801 1.75495C12.0494 4.96237 15.3136 8.14837 18.5171 11.3923C22.4743 15.3975 26.3796 19.4531 30.2749 23.4545C32.2579 21.52 33.9897 19.869 35.6785 18.1752C40.1317 13.7125 44.566 9.23095 49.0065 4.75695C49.9835 3.77267 50.9642 2.79217 51.9299 1.7978C53.4483 0.233794 55.2331 -0.45432 57.3499 0.318233C59.4919 1.09961 60.7403 2.6926 60.9776 4.96111C61.1404 6.52134 60.4575 7.81187 59.3695 8.9058Z" fill="#017ACD"/>
</svg>
