<svg width="48" height="48" viewBox="0 0 48 48" fill="none" xmlns="http://www.w3.org/2000/svg">
<path d="M34.8206 15.3583C34.4211 15.7923 33.9982 16.2091 33.5806 16.6208C33.4176 16.7815 33.2554 16.9413 33.0958 17.1011L33.0957 17.1012C32.1716 18.0253 31.2474 18.9493 30.3232 19.8732C28.9451 21.2511 27.567 22.6288 26.1893 24.0068C26.3748 24.1912 26.5601 24.3753 26.7452 24.5591C27.2663 25.0768 27.7858 25.5928 28.3034 26.1099C28.963 26.7687 29.6216 27.4281 30.2802 28.0874C31.749 29.5578 33.2173 31.0276 34.6938 32.4899C35.5289 33.317 35.3298 34.3791 34.6805 34.9032L34.6805 34.9033C34.0648 35.4 33.2104 35.3643 32.6183 34.7878C31.9431 34.1303 31.2771 33.4627 30.6123 32.7965C30.4143 32.598 30.2164 32.3996 30.0184 32.2017C28.9032 31.0868 27.7883 29.9713 26.6733 28.8558C25.7806 27.9626 24.8879 27.0694 23.9951 26.1766C23.9885 26.17 23.982 26.1637 23.9751 26.1573C23.9119 26.225 23.8486 26.2931 23.785 26.3615C23.5257 26.6404 23.2628 26.9232 22.9927 27.194C20.4995 29.6945 18.003 32.1915 15.5048 34.6867C15.1393 35.0518 14.6956 35.2465 14.2553 35.2455C13.8121 35.2445 13.3945 35.0444 13.095 34.6631L13.095 34.6631C12.5986 34.0311 12.6356 33.2134 13.2208 32.607L13.2208 32.607C13.7691 32.039 14.3296 31.4814 14.888 30.9258C15.0814 30.7334 15.2746 30.5413 15.4668 30.3491C16.5278 29.2881 17.589 28.2275 18.6502 27.1669L18.6529 27.1641C19.7097 26.108 20.7664 25.0518 21.8228 23.9954C21.5139 23.6878 21.2063 23.3819 20.8997 23.0769C20.2679 22.4485 19.6405 21.8244 19.0144 21.1995L19.0143 21.1995C17.4341 19.6216 15.8546 18.0425 14.2754 16.4635C13.9601 16.1484 13.6449 15.8332 13.3297 15.5181C12.9405 15.129 12.7387 14.6599 12.7576 14.1979C12.7766 13.7321 13.0191 13.3062 13.4531 13.0138L13.4532 13.0138C14.0555 12.6083 14.8317 12.6696 15.3825 13.2023L15.3825 13.2023C15.9402 13.7415 16.488 14.292 17.0338 14.8406C17.2359 15.0438 17.4378 15.2467 17.6398 15.4486C18.5554 16.3637 19.4707 17.2788 20.3859 18.1939C21.5965 19.4042 22.8069 20.6144 24.0178 21.8243C24.1638 21.6761 24.3098 21.5278 24.4558 21.3794C24.8925 20.9357 25.3293 20.4918 25.7689 20.0515C28.0096 17.8075 30.2515 15.5645 32.4956 13.3244L32.4957 13.3243C32.7737 13.047 33.0789 12.8609 33.404 12.7868C33.7322 12.712 34.062 12.7557 34.3763 12.9073M34.8206 15.3583C34.8205 15.3583 34.8205 15.3584 34.8205 15.3584L34.6366 15.189L34.8206 15.3583ZM34.8206 15.3583C35.5479 14.5686 35.319 13.3614 34.3763 12.9073M34.3763 12.9073C34.3763 12.9073 34.3762 12.9073 34.3762 12.9073L34.2677 13.1325L34.3763 12.9073Z" fill="white" stroke="white" stroke-width="0.5"/>
</svg>
