<svg width="30" height="32" viewBox="0 0 30 32" fill="none" xmlns="http://www.w3.org/2000/svg">
<path d="M17.6014 24.3677C17.6014 26.0339 17.6319 27.7001 17.5908 29.365C17.5627 30.5425 16.9531 31.3587 15.9401 31.7887C14.94 32.2137 14.015 31.9887 13.2189 31.235C12.5588 30.61 12.37 29.7813 12.3736 28.8663C12.3841 25.8464 12.3771 22.8278 12.3771 19.8079C12.3771 19.6617 12.3607 19.5142 12.3794 19.3717C12.4439 18.8917 12.2411 18.778 11.8143 18.7805C8.8258 18.798 5.83729 18.7967 2.84878 18.7855C1.39498 18.7805 0.420693 18.0205 0.0865525 16.6843C-0.324968 15.0369 0.761869 13.3719 2.35519 13.2344C2.87927 13.1894 3.4092 13.2019 3.93562 13.2019C6.55247 13.1994 9.1705 13.1894 11.7873 13.2107C12.2422 13.2144 12.3888 13.0869 12.3853 12.5832C12.3642 9.41832 12.3689 6.2522 12.3771 3.08732C12.3806 1.51988 13.07 0.474923 14.3069 0.106187C15.8756 -0.361295 17.4572 0.79616 17.5885 2.52859C17.6342 3.12857 17.619 3.7348 17.6202 4.33852C17.6225 7.06591 17.6366 9.79456 17.6084 12.522C17.6026 13.0857 17.7632 13.2157 18.2697 13.2107C21.2183 13.1857 24.1682 13.1932 27.118 13.2019C28.5554 13.2057 29.5379 13.9294 29.8896 15.2106C30.3562 16.9055 29.267 18.6242 27.6127 18.7542C26.894 18.8105 26.1683 18.788 25.4461 18.788C23.0438 18.7917 20.6415 18.8017 18.2392 18.778C17.7632 18.773 17.5967 18.9005 17.6073 19.4329C17.6389 21.0779 17.619 22.7228 17.619 24.3677H17.6002H17.6014Z" fill="#017ACD"/>
</svg>
