<svg width="24" height="24" viewBox="0 0 24 24" fill="none" xmlns="http://www.w3.org/2000/svg">
<path d="M23.9834 1.9849C23.9651 0.892956 23.1004 0.0319681 22.0058 0.0158548C20.699 -0.00401827 19.3917 -0.00670382 18.0855 0.0163919C17.3427 0.0292826 16.7417 0.346178 16.3566 1.01381C16.3217 1.0745 16.2299 1.14003 16.1649 1.14003C13.0583 1.14432 9.95173 1.13304 6.8457 1.14755C6.18776 1.15077 5.51961 1.19052 4.8751 1.31351C2.91684 1.68734 1.44359 2.73202 0.610012 4.58505C0.205579 5.48525 0.0149092 6.44184 0.0106125 7.42207C-0.00442623 10.7699 -0.00120365 14.1177 0.0063157 17.465C0.0073899 17.9279 0.0417641 18.3963 0.116958 18.8528C0.417732 20.6822 1.26151 22.1711 2.9104 23.1186C3.93195 23.7062 5.05502 23.9661 6.22052 23.9855C7.95696 24.0134 9.69393 23.9925 11.4309 23.9925V23.9962C12.9256 23.9962 14.4209 24.0064 15.9157 23.9914C16.5043 23.9855 17.0983 23.9667 17.6795 23.8802C19.431 23.6186 20.8795 22.835 21.8543 21.3053C22.5305 20.2434 22.8394 19.0575 22.8501 17.8178C22.878 14.5066 22.8587 11.1942 22.8641 7.88237C22.8641 7.80395 22.9113 7.68848 22.9726 7.65356C23.6703 7.25181 23.9796 6.62553 23.9888 5.85156C24.0038 4.56249 24.0054 3.27343 23.9834 1.9849ZM21.213 11.1749C21.2125 11.7662 21.213 12.357 21.2114 12.9479C21.2109 13.0419 21.2007 13.1358 21.1916 13.2798C21.0874 13.2078 21.0224 13.1681 20.9627 13.1224C19.9922 12.3785 18.7102 12.4 17.7729 13.1971C16.2594 14.4845 14.7389 15.7655 13.2517 17.0831C12.3026 17.9247 11.1086 18.0305 10.1762 17.5149C9.91252 17.3694 9.67996 17.1642 9.44418 16.973C8.48492 16.1958 7.34091 16.1361 6.31559 16.822C5.02119 17.6879 3.72947 18.5564 2.43614 19.4238C2.33302 19.4925 2.22828 19.5597 2.08649 19.6521C1.84802 19.0913 1.71536 18.5462 1.69656 17.9833C1.66487 17.0444 1.65681 16.1045 1.65466 15.1651C1.64822 12.7475 1.63479 10.3305 1.66004 7.91353C1.66648 7.25771 1.73201 6.58633 1.88991 5.95146C2.31046 4.2644 3.44427 3.27987 5.13022 2.94418C5.67 2.83676 6.22965 2.7911 6.78071 2.78842C9.72669 2.77392 12.6727 2.78144 15.6186 2.78144C15.6783 2.78144 15.7282 2.78144 15.7706 2.77982H16.0591V3.03065C16.0585 3.87231 16.0805 4.7145 16.0532 5.55561C16.0037 7.04878 16.9034 7.98872 18.4529 7.94736C19.3729 7.92266 20.293 7.93823 21.2136 7.94575V8.80191C21.2179 9.59307 21.213 10.3842 21.213 11.1749ZM22.2593 4.68764C21.8291 4.69086 21.3994 4.6957 20.9697 4.68495C20.7936 4.68066 20.7339 4.7392 20.7382 4.91484C20.749 5.3354 20.7463 5.75649 20.7436 6.17705C20.7404 6.63735 20.423 6.98755 20.0207 6.98271C19.6098 6.97788 19.3144 6.64004 19.3123 6.16792C19.3101 5.68667 19.3123 5.20541 19.3123 4.68818C18.7703 4.68818 18.2789 4.69033 17.7869 4.68818C17.3459 4.68603 17.0124 4.37451 17.0135 3.96952C17.014 3.56777 17.3497 3.25732 17.7944 3.25463C18.2241 3.25194 18.6538 3.24926 19.0834 3.25946C19.2591 3.26376 19.3187 3.20468 19.3144 3.02851C19.3042 2.59882 19.308 2.16913 19.3123 1.73944C19.316 1.29686 19.6308 0.955798 20.0271 0.954724C20.4246 0.954187 20.7409 1.29471 20.7442 1.73729C20.7479 2.16698 20.7495 2.59667 20.7393 3.02636C20.735 3.20199 20.7946 3.26108 20.9708 3.25678C21.4005 3.24657 21.8302 3.25087 22.2598 3.25463C22.7072 3.25785 23.0521 3.57582 23.0413 3.96738C23.03 4.37289 22.6943 4.68495 22.2593 4.68818V4.68764Z" fill="white"/>
<path d="M5.39062 7.80521C5.41001 6.31056 6.62379 5.11891 8.11112 5.13393C9.59845 5.14895 10.7778 6.36955 10.781 7.85938C10.7842 9.30309 9.54191 10.5746 7.97596 10.5226C6.54517 10.4754 5.37178 9.26715 5.39116 7.80521H5.39062Z" fill="white"/>
</svg>
