<svg width="25" height="27" viewBox="0 0 25 27" fill="none" xmlns="http://www.w3.org/2000/svg">
<path d="M22.8805 3.15102C22.8666 3.09408 22.8541 3.03521 22.8409 2.9728C22.8084 2.82128 22.775 2.66493 22.717 2.50343C22.2534 1.21435 21.3352 0.439041 19.9875 0.198727C19.9843 0.19744 19.9814 0.196475 19.9782 0.195188C19.9621 0.189719 19.946 0.183928 19.9296 0.178781L19.861 0.157227H19.0738L19.0052 0.178781C18.9879 0.18425 18.9702 0.190362 18.9528 0.196796C18.9528 0.196796 18.9528 0.196796 18.9528 0.197118C18.3203 0.28977 17.775 0.530406 17.3316 0.911628C17.0301 1.17092 16.7515 1.45209 16.4822 1.72394C16.4144 1.79214 16.3468 1.86066 16.2786 1.92854C14.4824 3.72238 12.6569 5.54741 10.8915 7.31229L9.76742 8.43602C9.08342 9.11996 8.39942 9.80423 7.71542 10.4882L6.05272 12.1508C5.79148 12.412 5.53023 12.6732 5.26899 12.9341C4.40418 13.7979 3.50977 14.6913 2.63466 15.575C2.48313 15.7278 2.36184 15.9337 2.29267 16.1547C2.18714 16.4919 2.09416 16.8342 2.00407 17.1652C1.97447 17.2743 1.94488 17.3833 1.91463 17.4924C1.84257 17.7533 1.7705 18.0139 1.69811 18.2744C1.48223 19.0543 1.25895 19.8608 1.04339 20.6554C0.934 21.0591 1.03438 21.4654 1.31139 21.7418C1.51408 21.9438 1.78498 22.0513 2.07325 22.0513C2.17877 22.0513 2.28687 22.0368 2.39433 22.0072L2.63627 21.9409C3.93284 21.5861 5.27381 21.219 6.5913 20.8523C6.61511 20.8455 6.63891 20.8391 6.6624 20.833C6.91399 20.7648 7.22672 20.6798 7.49665 20.407C8.47342 19.42 9.47336 18.4224 10.4402 17.4573C10.8201 17.078 11.2004 16.6987 11.58 16.3191C12.6549 15.2443 13.7295 14.1691 14.8044 13.0943C17.1122 10.7867 19.4196 8.4788 21.7284 6.17185C22.0096 5.89068 22.3596 5.54098 22.5517 5.0626C22.6492 4.81972 22.7193 4.57425 22.7869 4.33716C22.8161 4.23485 22.8438 4.13834 22.8734 4.04215L22.894 3.97491V3.20571L22.8805 3.15102ZM6.07943 18.7383C5.26448 18.969 4.43603 19.1993 3.62817 19.4239C3.74978 18.9835 3.86946 18.5492 3.98947 18.1145L4.04384 17.917C4.13007 17.6046 4.21886 17.2816 4.3112 16.9677C4.31184 16.9657 4.31345 16.9622 4.31506 16.9599C5.76124 15.5116 7.23283 14.0401 8.65616 12.6172C9.24074 12.033 9.82533 11.4485 10.4099 10.8639C11.4906 9.78332 12.571 8.70207 13.6513 7.62113C14.5432 6.72872 15.435 5.83663 16.3268 4.94454C16.536 4.73543 16.7445 4.52568 16.9529 4.31592C17.4893 3.77674 18.0439 3.21923 18.5976 2.6823C18.9766 2.31491 19.4045 2.22612 19.9061 2.41046C20.3861 2.58707 20.6503 2.92776 20.7133 3.45214C20.7612 3.84945 20.6377 4.18949 20.3356 4.4919L17.4799 7.34865C15.8996 8.92983 14.3196 10.511 12.7389 12.0919C10.7394 14.0919 8.41261 16.4185 6.10388 18.7219C6.09744 18.728 6.08425 18.7364 6.07943 18.7383Z" fill="white"/>
<path d="M2.21289 24.8418H23.7294" stroke="white" stroke-width="2.5" stroke-linecap="round"/>
</svg>
