<svg width="15" height="15" viewBox="0 0 15 15" fill="none" xmlns="http://www.w3.org/2000/svg">
<path d="M7.4951 1.90407C7.68681 1.68979 7.84805 1.49601 8.02276 1.31651C10.3369 -1.05731 13.198 0.122144 14.3419 2.2643C15.1803 3.83381 15.209 5.45859 14.4773 7.08151C13.5891 9.05349 12.291 10.7081 10.7848 12.1708C9.79983 13.1272 8.73336 13.9881 7.70323 14.8918C7.5848 14.9955 7.48865 15.0551 7.32448 14.9278C5.46123 13.4738 3.72168 11.8788 2.26649 9.95966C1.55472 9.02119 0.914487 8.0293 0.458933 6.92313C-0.249901 5.20394 -0.148472 3.5245 0.838854 1.96058C2.07184 0.00724161 4.75708 -0.936822 6.93928 1.28483C7.12749 1.47675 7.30044 1.68606 7.4951 1.90407Z" fill="#FF4A4D"/>
</svg>
