<svg width="48" height="48" viewBox="0 0 48 48" fill="none" xmlns="http://www.w3.org/2000/svg">
<path d="M28.1694 36.2504H28.1674C26.1927 36.2344 24.1837 36.2377 22.2394 36.241C21.363 36.2427 20.4877 36.2438 19.6107 36.2438C18.6696 36.2438 17.7678 35.8914 17.0092 35.2628L17.0091 35.2628C16.2505 34.6338 15.7274 33.7878 15.544 32.876C15.544 32.876 15.544 32.8759 15.544 32.8759L15.7891 32.8266C15.7351 32.5586 15.7076 32.2746 15.707 31.983L28.1694 36.2504ZM28.1694 36.2504H28.1975C29.2764 36.2504 30.3481 35.7954 31.1473 35.0049C31.9641 34.1981 32.4183 33.1373 32.4212 32.0194C32.4284 29.3498 32.4272 26.6352 32.4261 24.0107C32.4256 22.9844 32.4256 21.9581 32.4256 20.9312C32.4256 19.5103 32.4256 18.0406 32.4228 16.5561V16.556C32.4222 16.2727 32.3418 16.0155 32.1678 15.8245C31.992 15.6316 31.7456 15.5336 31.4682 15.5247L31.4672 15.5247M28.1694 36.2504L31.4672 15.5247M15.4537 23.0988C15.4537 23.0989 15.4537 23.099 15.4537 23.099L15.4531 24.4719V24.472V26.1494C15.4531 26.3401 15.4531 26.5314 15.4531 26.7232C15.4531 28.4552 15.453 30.2327 15.457 31.9834L15.4537 23.0988ZM15.4537 23.0988C15.4531 21.006 15.4531 18.8413 15.457 16.7124L15.457 16.7121C15.4576 16.4953 15.503 16.275 15.5924 16.0916L15.5924 16.0916C15.697 15.8769 15.8475 15.7043 16.0427 15.6035C16.2408 15.5012 16.4633 15.4842 16.6856 15.545L16.6857 15.545C17.1446 15.6709 17.4302 16.0473 17.4423 16.5244L17.4423 16.5246C17.4496 16.8207 17.4479 17.1183 17.4462 17.4028L17.4446 17.6948C17.4446 17.6949 17.4446 17.695 17.4446 17.6952C17.4418 18.7896 17.4391 19.8841 17.4358 20.9792C17.4358 20.9792 17.4358 20.9792 17.4358 20.9793L17.1858 20.9785C17.1852 21.1823 17.1847 21.3866 17.1842 21.5914C17.178 23.9471 17.1717 26.3671 17.1687 28.7509L15.4537 23.0988ZM28.2341 34.248C28.0593 34.25 27.8824 34.2547 27.7126 34.2592C27.6935 34.2597 27.6745 34.2602 27.6556 34.2607C27.3849 34.2679 27.1072 34.2744 26.8394 34.2744L28.2372 34.498M28.2341 34.248C28.2342 34.248 28.2342 34.248 28.2343 34.248L28.2372 34.498M28.2341 34.248C28.234 34.248 28.2339 34.248 28.2338 34.248L28.2372 34.498M28.2341 34.248C29.4228 34.2321 30.4331 33.2083 30.4336 32.0175C30.4344 29.2766 30.4343 26.5356 30.4342 23.7945C30.4342 22.8814 30.4342 21.9682 30.4342 21.055V16.7349M28.2372 34.498C29.5628 34.4804 30.6831 33.345 30.6836 32.0176C30.6844 29.2766 30.6843 26.5355 30.6842 23.7945C30.6842 22.8813 30.6842 21.9682 30.6842 21.055V16.7327M30.4342 16.7349C30.4342 16.7357 30.4342 16.7364 30.4342 16.7372L30.6842 16.7327M30.4342 16.7349C30.433 16.671 30.4331 16.6064 30.4348 16.5406L30.4348 16.5392C30.4437 16.2633 30.54 16.0086 30.7267 15.8167M30.4342 16.7349V16.7327H30.6842M30.6842 16.7327L30.7267 15.8167M30.7267 15.8167C30.9212 15.6164 31.1861 15.5168 31.4672 15.5247M30.7267 15.8167L31.4672 15.5247" fill="#017ACD" stroke="#017ACD" stroke-width="0.5"/>
<path d="M33.5716 13.8807V13.8191L33.9094 13.9458C34.3855 14.1244 34.7401 14.5925 34.6258 15.0879L34.6258 15.0881C34.5934 15.2282 34.5171 15.4261 34.3363 15.5893C34.1516 15.756 33.8839 15.8629 33.5142 15.8629L30.4058 15.8632L27.2968 15.8635L25.2341 15.8632L23.1711 15.8629H19.3307C18.7876 15.8629 18.2445 15.8631 17.7013 15.8632C16.6147 15.8634 15.5279 15.8637 14.441 15.8629C14.439 15.8629 14.437 15.8629 14.4349 15.8629C14.3365 15.863 14.0969 15.8631 13.8701 15.7624C13.7499 15.709 13.6278 15.6253 13.5317 15.4953C13.435 15.3645 13.3747 15.2006 13.3582 15.0032L13.3582 15.0031C13.3258 14.6161 13.4676 14.3566 13.6067 14.2049C13.7493 14.0485 14.0011 13.8841 14.4012 13.882L33.5716 13.8807ZM33.5716 13.8807C33.5384 13.8791 33.5089 13.8787 33.4843 13.8787C32.7405 13.8776 31.9968 13.8781 31.2532 13.8792L30.3463 13.8792L30.3458 13.8792C29.8493 13.8803 29.3529 13.8803 28.848 13.8798H28.8477H28.6807C28.6807 13.8692 28.6807 13.8586 28.6807 13.848C28.6806 13.6577 28.6805 13.4719 28.6813 13.2856V13.2853C28.6829 12.8337 28.5535 12.4445 28.2782 12.1678C28.0029 11.8912 27.6142 11.7596 27.1624 11.7577C27.1624 11.7577 27.1623 11.7577 27.1623 11.7577L26.5097 11.755L26.5095 11.755C26.4132 11.7546 26.3163 11.7543 26.219 11.754C25.6582 11.752 25.0839 11.75 24.5188 11.75L24.5187 11.75L24.5103 11.75C23.2469 11.7506 21.9398 11.7511 20.6349 11.7605L33.5716 13.8807ZM19.1986 13.2152L19.1986 13.2146C19.2005 12.7938 19.3321 12.4263 19.5921 12.1625C19.8524 11.8983 20.2167 11.7633 20.6348 11.7605L19.1986 13.2152ZM19.1986 13.2152C19.1981 13.4341 19.198 13.6529 19.1983 13.8781M19.1986 13.2152L19.1983 13.8781M19.1983 13.8781H16.518H16.5178C15.8246 13.8781 15.1075 13.8781 14.4013 13.882L19.1983 13.8781ZM28.4314 13.2845C28.4341 12.476 27.9709 12.011 27.1613 12.0077L28.4308 14.0423C28.4308 13.9772 28.4308 13.9127 28.4307 13.8487C28.4306 13.6582 28.4305 13.4715 28.4314 13.2845ZM28.8477 14.1298H28.6808H28.8477ZM26.6761 13.7849V13.8649H21.2104V13.7849H26.6761Z" fill="#017ACD" stroke="#017ACD" stroke-width="0.5"/>
<path d="M24.6288 33.3188L24.6286 33.319C24.4552 33.4768 24.235 33.5431 23.989 33.5431C23.9415 33.5431 23.8939 33.5403 23.8468 33.5359M24.6288 33.3188L24.9351 18.475C24.9368 18.1814 24.9379 17.874 24.9284 17.5684L24.9284 17.5679C24.9112 17.047 24.5206 16.6126 23.9999 16.5782L23.9998 16.5782C23.5171 16.5465 23.0644 16.8858 22.9665 17.3603C22.9403 17.486 22.9419 17.6028 22.943 17.6829C22.9431 17.6857 22.9431 17.6885 22.9431 17.6912V17.7407C22.9431 17.7407 22.9431 17.7407 22.9431 17.7407C22.9426 22.6073 22.9426 27.4733 22.9431 32.3399H23.1931L22.9431 32.3399C22.9431 32.3517 22.9428 32.3604 22.9424 32.3723C22.9422 32.3803 22.9419 32.3899 22.9415 32.4027L23.1915 32.4087L22.9416 32.3997L22.9415 32.4025C22.9388 32.4779 22.9348 32.5894 22.958 32.7117L22.958 32.7118C23.0008 32.9373 23.1009 33.1351 23.259 33.2827C23.4175 33.4306 23.6206 33.5152 23.8468 33.5359M24.6288 33.3188C24.9174 33.0558 24.934 32.6596 24.934 32.4582V25.1174C24.934 25.1174 24.934 25.1174 24.934 25.1173C24.9346 23.0096 24.9346 20.9018 24.934 18.794L24.6288 33.3188ZM23.8468 33.5359L23.87 33.287L23.8472 33.536C23.8471 33.536 23.8469 33.536 23.8468 33.5359ZM24.934 18.794C24.934 18.688 24.9346 18.5819 24.9351 18.4751L24.934 18.794Z" fill="#017ACD" stroke="#017ACD" stroke-width="0.5"/>
<path d="M20.1428 33.533L20.1428 33.533C19.8695 33.5294 19.6265 33.4284 19.4534 33.2377C19.2823 33.049 19.1988 32.7941 19.1988 32.5143L20.1428 33.533ZM20.1428 33.533H20.146M20.1428 33.533H20.146M20.146 33.533H20.1461H20.1461H20.1461H20.1461H20.1461H20.1462H20.1462H20.1462H20.1462H20.1463H20.1463H20.1463H20.1463H20.1463H20.1464H20.1464H20.1464H20.1464H20.1465H20.1465H20.1465H20.1465H20.1466H20.1466H20.1466H20.1466H20.1466H20.1467H20.1467H20.1467H20.1467H20.1468H20.1468H20.1468H20.1468H20.1468H20.1469H20.1469H20.1469H20.1469H20.147H20.147H20.147H20.147H20.147H20.1471H20.1471H20.1471H20.1471H20.1472H20.1472H20.1472H20.1472H20.1473H20.1473H20.1473H20.1473H20.1473H20.1474H20.1474H20.1474H20.1474H20.1475H20.1475H20.1475H20.1475H20.1475H20.1476H20.1476H20.1476H20.1476H20.1477H20.1477H20.1477H20.1477H20.1477H20.1478H20.1478H20.1478H20.1478H20.1479H20.1479H20.1479H20.1479H20.148H20.148H20.148H20.148H20.148H20.1481H20.1481H20.1481H20.1481H20.1482H20.1482H20.1482H20.1482H20.1482H20.1483H20.1483H20.1483H20.1483H20.1484H20.1484H20.1484H20.1484H20.1484H20.1485H20.1485H20.1485H20.1485H20.1486H20.1486H20.1486H20.1486H20.1487H20.1487H20.1487H20.1487H20.1487H20.1488H20.1488H20.1488H20.1488H20.1489H20.1489H20.1489H20.1489H20.1489H20.149H20.149H20.149H20.149H20.1491H20.1491H20.1491H20.1491H20.1491H20.1492H20.1492H20.1492H20.1492H20.1493H20.1493H20.1493H20.1493H20.1494H20.1494H20.1494H20.1494H20.1494H20.1495H20.1495H20.1495H20.1495H20.1496H20.1496H20.1496H20.1496H20.1496H20.1497H20.1497H20.1497H20.1497H20.1498H20.1498H20.1498H20.1498H20.1499H20.1499H20.1499H20.1499H20.1499H20.15H20.15H20.15H20.15H20.1501H20.1501H20.1501H20.1501H20.1501H20.1502H20.1502H20.1502H20.1502H20.1503H20.1503H20.1503H20.1503H20.1503H20.1504H20.1504H20.1504H20.1504H20.1505H20.1505H20.1505H20.1505H20.1506H20.1506H20.1506H20.1506H20.1506H20.1507H20.1507H20.1507H20.1507H20.1508H20.1508H20.1508H20.1508H20.1508H20.1509H20.1509H20.1509H20.1509H20.151H20.151H20.151H20.151H20.151H20.1511H20.1511H20.1511H20.1511H20.1512H20.1512H20.1512H20.1512H20.1513H20.1513H20.1513H20.1513H20.1513H20.1514H20.1514H20.1514H20.1514H20.1515H20.1515H20.1515H20.1515H20.1515H20.1516H20.1516H20.1516H20.1516H20.1517H20.1517H20.1517H20.1517H20.1517H20.1518H20.1518H20.1518H20.1518H20.1519H20.1519H20.1519H20.1519H20.152H20.152H20.152H20.152H20.152H20.1521H20.1521H20.1521H20.1521H20.1522H20.1522H20.1522H20.1522H20.1522H20.1523H20.1523H20.1523H20.1523H20.1524H20.1524H20.1524H20.1524H20.1524H20.1525H20.1525H20.1525H20.1525H20.1526H20.1526H20.1526H20.1526H20.1527H20.1527H20.1527H20.1527H20.1527H20.1528H20.1528H20.1528H20.1528H20.1529H20.1529H20.1529H20.1529H20.1529H20.153H20.153H20.153H20.153H20.1531H20.1531H20.1531H20.1531H20.1531H20.1532H20.1532H20.1532H20.1532H20.1533H20.1533H20.1533H20.1533H20.1534H20.1534H20.1534H20.1534H20.1534H20.1535H20.1535H20.1535H20.1535H20.1536H20.1536H20.1536H20.1536H20.1536H20.1537H20.1537H20.1537H20.1537H20.1538H20.1538H20.1538H20.1538H20.1538H20.1539H20.1539H20.1539H20.1539H20.154H20.154H20.154H20.154H20.1541H20.1541H20.1541H20.1541H20.1541H20.1542H20.1542H20.1542H20.1542H20.1543H20.1543H20.1543H20.1543H20.1543H20.1544H20.1544H20.1544H20.1544H20.1545H20.1545H20.1545H20.1545H20.1545H20.1546H20.1546H20.1546H20.1546H20.1547H20.1547H20.1547H20.1547H20.1548H20.1548H20.1548H20.1548H20.1548H20.1549H20.1549H20.1549H20.1549H20.155H20.155H20.155H20.155H20.155H20.1551H20.1551H20.1551H20.1551H20.1552H20.1552H20.1552H20.1552H20.1552H20.1553H20.1553H20.1553H20.1553H20.1554H20.1554H20.1554H20.1554H20.1555H20.1555H20.1555H20.1555H20.1555H20.1556H20.1556H20.1556H20.1556H20.1557H20.1557H20.1557H20.1557H20.1557H20.1558H20.1558H20.1558H20.1558H20.1559H20.1559H20.1559H20.1559H20.1559H20.156H20.156H20.156H20.156H20.1561H20.1561H20.1561H20.1561H20.1562H20.1562H20.1562H20.1562H20.1562H20.1563H20.1563H20.1563H20.1563H20.1564H20.1564H20.1564H20.1564H20.1564H20.1565H20.1565H20.1565H20.1565H20.1566H20.1566H20.1566H20.1566H20.1566H20.1567H20.1567H20.1567H20.1567H20.1568H20.1568H20.1568H20.1568H20.1569H20.1569H20.1569H20.1569H20.1569H20.157H20.157H20.157H20.157H20.1571H20.1571H20.1571H20.1571H20.1571H20.1572H20.1572H20.1572H20.1572H20.1573H20.1573H20.1573H20.1573H20.1573H20.1574H20.1574H20.1574H20.1574H20.1575H20.1575H20.1575H20.1575H20.1576H20.1576H20.1576C20.704 33.533 21.1357 33.1297 21.1837 32.584L20.9347 32.5621M20.146 33.533L21.1874 17.6277M19.1977 17.6258L19.1977 17.6258C19.2086 17.0448 19.5985 16.581 20.1806 16.5742L20.1835 16.5742V16.5742H20.1923C20.4693 16.5742 20.7251 16.6899 20.9115 16.8966M19.1977 17.6258L20.9117 16.8968C20.9116 16.8967 20.9116 16.8967 20.9115 16.8966M19.1977 17.6258L19.1977 17.6274C19.1971 17.6746 19.1971 17.7218 19.1977 17.769V27.0692C19.1977 28.8841 19.1977 30.6992 19.1988 32.5142L19.1977 17.6258ZM20.9115 16.8966C21.0897 17.0938 21.1846 17.3553 21.1874 17.6277M20.9115 16.8966L21.1874 17.6277M21.1874 17.6277C21.1924 18.0354 21.1913 18.4493 21.1902 18.8468L21.1902 18.8469C21.1897 19.0204 21.1891 19.1933 21.1891 19.3657V32.3452V32.3879L21.1891 32.3883C21.1897 32.4389 21.1904 32.5094 21.1837 32.5843L20.9347 32.5621M21.1874 17.6277C21.1874 17.6276 21.1874 17.6275 21.1874 17.6274L20.9375 17.6305L21.1875 17.6279C21.1874 17.6278 21.1874 17.6278 21.1874 17.6277ZM20.9347 32.5621C20.8978 32.9814 20.5718 33.283 20.1576 33.283H20.146M20.9347 32.5621C20.9402 32.5004 20.9397 32.441 20.9391 32.3893V32.3452V19.3657L20.146 33.283M20.146 33.283C19.7225 33.2775 19.4488 32.9759 19.4488 32.5142C19.4477 30.6992 19.4477 28.8842 19.4477 27.0692L20.146 33.283Z" fill="#017ACD" stroke="#017ACD" stroke-width="0.5"/>
<path d="M26.9967 32.7434C26.9938 32.7369 26.991 32.7304 26.9882 32.7239C26.9819 32.7093 26.9758 32.6952 26.9697 32.6818L28.2708 33.3044C28.0982 33.445 27.8585 33.5063 27.6444 33.5063C27.5158 33.5063 27.3822 33.4842 27.2614 33.4333L27.2606 33.433C26.9654 33.3074 26.8406 33.0147 26.7749 32.8606C26.7721 32.8542 26.7695 32.848 26.767 32.8421L26.9967 32.7434ZM26.9967 32.7434C27.0683 32.9102 27.158 33.1176 27.3585 33.2029C27.4433 33.2387 27.543 33.2563 27.6444 33.2563C27.8184 33.2563 27.9968 33.2051 28.113 33.1105L26.9967 32.7434ZM26.9967 32.7434L26.7675 32.8434C26.7637 32.8346 26.7604 32.827 26.7574 32.8201C26.7518 32.8071 26.7473 32.7967 26.7423 32.7858L26.7419 32.7847C26.6634 32.611 26.6784 32.4446 26.6858 32.3633C26.686 32.3606 26.6863 32.358 26.6865 32.3555C26.6884 32.3339 26.6888 32.3274 26.6888 32.323V17.8013V17.7951L26.6889 17.7951C26.6892 17.7842 26.6891 17.7758 26.689 17.7643C26.6889 17.7569 26.6889 17.7483 26.6888 17.7369L26.6888 17.7363C26.6878 17.6735 26.6864 17.5967 26.6929 17.513L26.6929 17.5122L26.6929 17.5122C26.7122 17.2721 26.7985 17.0557 26.9516 16.8894C27.1052 16.7226 27.3129 16.6202 27.5495 16.5868L27.5498 16.5868C27.7938 16.5528 28.028 16.6006 28.2219 16.7301C28.4152 16.8592 28.5515 17.0579 28.6221 17.2968M26.9967 32.7434L28.4303 17.8366V17.8525L28.6803 17.8525V17.8366C28.6803 17.8332 28.6803 17.8297 28.6803 17.8263C28.6803 17.6873 28.6804 17.4931 28.6221 17.2968M28.6221 17.2968L28.3824 17.3677L28.622 17.2965C28.622 17.2966 28.6221 17.2967 28.6221 17.2968ZM28.6715 32.4297C28.6825 27.5705 28.6814 22.6299 28.6803 17.8525L28.6715 32.4297Z" fill="#017ACD" stroke="#017ACD" stroke-width="0.5"/>
</svg>
