<svg width="48" height="48" viewBox="0 0 48 48" fill="none" xmlns="http://www.w3.org/2000/svg">
<path d="M14 25.5C13.1716 25.5 12.5 24.8284 12.5 24C12.5 23.1716 13.1716 22.5 14 22.5V25.5ZM35.0607 22.9393C35.6464 23.5251 35.6464 24.4749 35.0607 25.0607L25.5147 34.6066C24.9289 35.1924 23.9792 35.1924 23.3934 34.6066C22.8076 34.0208 22.8076 33.0711 23.3934 32.4853L31.8787 24L23.3934 15.5147C22.8076 14.9289 22.8076 13.9792 23.3934 13.3934C23.9792 12.8076 24.9289 12.8076 25.5147 13.3934L35.0607 22.9393ZM14 22.5L34 22.5V25.5L14 25.5V22.5Z" fill="white"/>
</svg>
