<svg width="15" height="15" viewBox="0 0 15 15" fill="none" xmlns="http://www.w3.org/2000/svg">
<path d="M7.49471 2.65436L7.12213 2.23708C7.05119 2.15762 6.98722 2.08426 6.92684 2.01501C6.80663 1.87716 6.70067 1.75563 6.58229 1.63491L6.93928 1.28483M7.49471 2.65436L8.38085 1.66547C9.42435 0.595076 10.5426 0.36024 11.5083 0.584006C12.4986 0.813473 13.3884 1.5401 13.9008 2.49982L13.9009 2.49989C14.6634 3.92738 14.6919 5.38896 14.0215 6.87601L14.0214 6.87616C13.1657 8.77601 11.9107 10.3804 10.4365 11.8121C9.76746 12.4617 9.06783 13.0599 8.3544 13.6699C8.06648 13.9161 7.77632 14.1642 7.48502 14.4183C5.69816 13.0116 4.04709 11.4805 2.66491 9.65757L2.66487 9.65752C1.96741 8.73791 1.35437 7.78439 0.921262 6.73273L0.921184 6.73254C0.27018 5.15361 0.366278 3.64576 1.26165 2.2275L1.26167 2.22747C1.81402 1.35241 2.68078 0.722656 3.62377 0.548797C4.54627 0.378715 5.59877 0.63361 6.58258 1.63521L6.93928 1.28483M7.49471 2.65436L7.86772 2.23746M7.49471 2.65436L7.86772 2.23746M6.93928 1.28483C7.01539 1.36245 7.08901 1.4429 7.16258 1.52563C7.14917 1.54075 7.1358 1.55578 7.12247 1.57067L6.93928 1.28483ZM7.6308 14.5329L7.63092 14.5327C7.63266 14.5341 7.63352 14.5346 7.63351 14.5346C7.6335 14.5346 7.63302 14.5343 7.63206 14.5336L7.51781 14.6801L7.70309 14.8916L7.51766 14.6802L7.32448 14.9278L7.51704 14.6795L7.37904 14.5222C7.36067 14.5297 7.34949 14.5367 7.34641 14.5387C7.3456 14.5393 7.34526 14.5395 7.34553 14.5393C7.34643 14.5386 7.35428 14.5327 7.3735 14.5159L7.6308 14.5329ZM7.6308 14.5329L7.51718 14.6793L7.37944 14.5221C7.39319 14.5165 7.41094 14.5106 7.43228 14.5063C7.48802 14.4951 7.54252 14.4997 7.58649 14.5136C7.61011 14.521 7.62503 14.5293 7.6308 14.5329ZM7.86772 2.23746C7.93901 2.15778 8.00227 2.0855 8.06129 2.01807M7.86772 2.23746L8.06129 2.01807M8.06129 2.01807C8.17447 1.88875 8.27207 1.77724 8.38079 1.66553L8.06129 2.01807Z" stroke="#343434"/>
</svg>
