<svg width="204" height="266" viewBox="0 0 204 266" fill="none" xmlns="http://www.w3.org/2000/svg">
<path d="M200.43 93.7198C200.94 121.636 191.464 150.551 171.406 172.365C155.364 189.842 133.457 201.621 110.085 205.512C108.937 205.703 107.769 205.873 106.621 206.022C105.495 206.171 104.518 206.256 103.668 206.341C102.733 206.447 101.883 206.511 101.161 206.532C101.076 206.532 100.991 206.532 100.906 206.553C100.757 206.575 100.63 206.575 100.481 206.575C100.12 206.596 99.9283 206.596 99.9283 206.596C93.384 206.532 86.3723 202.344 81.9527 194.073C77.5332 185.802 74.856 178.34 72.9437 173.046C71.0526 167.773 61.9798 152.018 61.0661 152.018C60.1525 152.018 59.9825 158.907 60.2162 164.477C60.45 170.048 56.7741 170.856 56.3704 170.792C50.0173 171.323 44.2166 172.876 40.902 174.895C37.5661 176.894 34.4852 181.359 31.9992 183.081C29.5344 184.803 26.4535 185.611 25.4548 187.014C24.4562 188.418 25.4973 190.31 25.4973 190.31C25.4973 190.31 25.3274 193.818 26.411 197.198C27.4946 200.6 30.7668 203.811 32.1267 204.491C33.4653 205.171 37.6936 204.725 40.0096 205.235C42.3043 205.745 51.5471 208.063 56.0304 217.737C60.5137 227.389 58.4314 237.148 61.1936 246.099C63.9558 255.05 73.4748 258.282 79.1055 261.939C80.6141 262.938 82.1864 264.278 83.7375 266H37.5661C16.8282 266 0 249.161 0 228.41V139.942C0 139.942 12.7062 124.868 27.1122 112.387C20.7591 103.755 16.9345 92.8906 16.9345 81.0693C16.9345 75.7327 17.6994 70.6087 19.1443 65.7824C12.1112 68.7165 5.43943 70.6938 0 70.2686V32.6786C0 14.6278 14.6185 0 32.6578 0C32.6578 0 110.319 0 110.382 0C168.58 0 199.538 45.3503 200.43 93.7198Z" fill="url(#paint0_linear_699_8138)"/>
<path d="M110.106 83.8545C95.9337 75.1799 78.0219 48.5821 63.5734 47.7103C55.7329 47.2426 42.9418 54.3651 30.0231 60.7223C30.4693 61.594 30.4693 62.657 29.9806 63.5713C29.9169 63.6988 25.7098 71.8632 25.7098 79.2408C25.7098 83.1317 26.8997 86.8099 30.4906 88.9572C31.5317 89.5738 32.5729 89.6589 33.8477 89.2336C41.3694 86.7036 51.2709 68.27 55.7329 57.2354C56.3916 55.6195 58.2189 54.8329 59.8338 55.492C61.4486 56.1511 62.2348 57.9795 61.5761 59.5954C60.28 62.7846 48.5937 90.9133 35.8663 95.2081C34.6976 95.5908 33.529 95.8034 32.3816 95.8034C30.5968 95.8034 28.8757 95.3144 27.2822 94.3789C15.1709 87.1713 19.8879 71.2679 22.8201 64.1666C14.4272 67.9724 6.37434 70.7788 0 70.2686V139.942C0 139.942 36.9924 95.9947 56.3491 95.9947C75.7059 95.9947 92.4704 100.332 99.0997 98.5886C105.771 96.8664 124.257 92.5291 110.106 83.8545ZM82.3352 77.4761C80.5291 77.4761 79.0843 76.0304 79.0843 74.2232C79.0843 72.4372 80.5291 70.9702 82.3352 70.9702C84.12 70.9702 85.5861 72.4372 85.5861 74.2232C85.5861 76.0304 84.12 77.4761 82.3352 77.4761Z" fill="white"/>
<path fill-rule="evenodd" clip-rule="evenodd" d="M101.16 206.532C101.776 206.49 102.626 206.447 103.667 206.341C102.711 206.447 101.883 206.511 101.16 206.532Z" fill="#040000"/>
<defs>
<linearGradient id="paint0_linear_699_8138" x1="100.225" y1="0" x2="100.225" y2="266" gradientUnits="userSpaceOnUse">
<stop stop-color="#46C0F2"/>
<stop offset="1" stop-color="#017ACD"/>
</linearGradient>
</defs>
</svg>
