<svg width="258" height="65" viewBox="0 0 258 65" fill="none" xmlns="http://www.w3.org/2000/svg">
<g clip-path="url(#clip0_772_7948)">
<path d="M42.249 19.6421C42.3565 25.4929 40.359 31.5531 36.1309 36.125C32.7494 39.7878 28.1317 42.2565 23.205 43.0719C22.9631 43.112 22.7168 43.1477 22.4749 43.1789C22.2375 43.21 22.0315 43.2279 21.8523 43.2457C21.6553 43.268 21.4761 43.2813 21.3238 43.2858C21.3059 43.2858 21.288 43.2858 21.2701 43.2903C21.2387 43.2947 21.2119 43.2947 21.1805 43.2947C21.1044 43.2992 21.0641 43.2992 21.0641 43.2992C19.6846 43.2858 18.2065 42.408 17.2749 40.6746C16.3433 38.9412 15.779 37.3771 15.3759 36.2676C14.9773 35.1625 13.0648 31.8606 12.8722 31.8606C12.6796 31.8606 12.6438 33.3043 12.6931 34.4718C12.7423 35.6393 11.9675 35.8086 11.8824 35.7952C10.5432 35.9066 9.3205 36.2319 8.6218 36.6552C7.91862 37.0741 7.26918 38.0099 6.74516 38.3708C6.22561 38.7317 5.57618 38.9011 5.36567 39.1952C5.15516 39.4893 5.37463 39.8859 5.37463 39.8859C5.37463 39.8859 5.3388 40.6211 5.56722 41.3296C5.79564 42.0426 6.48538 42.7154 6.77203 42.858C7.0542 43.0006 7.94549 42.907 8.43369 43.014C8.9174 43.1209 10.8657 43.6066 11.8107 45.6341C12.7558 47.6572 12.3169 49.7025 12.8991 51.5785C13.4814 53.4544 15.4879 54.1318 16.6748 54.8982C16.9928 55.1076 17.3242 55.3884 17.6512 55.7493H7.91862C3.54725 55.7493 0 52.2201 0 47.871V29.3295C0 29.3295 2.67836 26.1702 5.71502 23.5545C4.37584 21.7454 3.56965 19.4684 3.56965 16.9908C3.56965 15.8724 3.73089 14.7985 4.03545 13.7869C2.55295 14.4019 1.14659 14.8163 0 14.7272V6.84891C0 3.06574 3.08145 0 6.884 0C6.884 0 23.2542 0 23.2677 0C35.5352 0 42.0609 9.5047 42.249 19.6421Z" fill="url(#paint0_linear_772_7948)"/>
<path d="M23.2094 17.5749C20.222 15.7569 16.4464 10.1824 13.4007 9.9997C11.748 9.90167 9.05177 11.3944 6.32862 12.7268C6.42268 12.9095 6.42268 13.1323 6.31967 13.3239C6.30623 13.3506 5.41942 15.0617 5.41942 16.608C5.41942 17.4234 5.67023 18.1943 6.42716 18.6444C6.64662 18.7736 6.86609 18.7914 7.13482 18.7023C8.72033 18.172 10.8075 14.3087 11.748 11.996C11.8869 11.6573 12.2721 11.4925 12.6125 11.6306C12.9529 11.7687 13.1186 12.152 12.9797 12.4906C12.7065 13.159 10.2431 19.0543 7.56031 19.9545C7.31397 20.0347 7.06763 20.0792 6.82578 20.0792C6.44955 20.0792 6.08676 19.9767 5.75085 19.7807C3.1979 18.2701 4.19221 14.937 4.81029 13.4487C3.04114 14.2463 1.34366 14.8345 0 14.7275V29.3299C0 29.3299 7.79769 20.1193 11.8779 20.1193C15.9582 20.1193 19.492 21.0284 20.8894 20.663C22.2957 20.302 26.1923 19.393 23.2094 17.5749ZM17.3556 16.2381C16.9749 16.2381 16.6703 15.9351 16.6703 15.5564C16.6703 15.1821 16.9749 14.8746 17.3556 14.8746C17.7318 14.8746 18.0408 15.1821 18.0408 15.5564C18.0408 15.9351 17.7318 16.2381 17.3556 16.2381Z" fill="white"/>
<path fill-rule="evenodd" clip-rule="evenodd" d="M43.0017 21.0908V55.7542H17.6424C17.3199 55.3933 16.9885 55.1125 16.666 54.9031C15.4791 54.1322 13.4726 53.4594 12.8904 51.5834C12.3081 49.7029 12.7425 47.6576 11.802 45.639C10.857 43.616 8.90865 43.1303 8.42493 43.0189C7.93674 42.912 7.04992 43.0055 6.76328 42.8629C6.48111 42.7159 5.78689 42.043 5.55846 41.3345C5.32556 40.626 5.36587 39.8908 5.36587 39.8908C5.36587 39.8908 5.14641 39.4897 5.35692 39.2001C5.56742 38.906 6.21686 38.7367 6.7364 38.3757C7.25595 38.0148 7.90986 37.079 8.61304 36.6602C9.31622 36.2368 10.5345 35.9115 11.8737 35.8001C11.9587 35.8135 12.7336 35.6442 12.6843 34.4767C12.6351 33.3092 12.6709 31.8655 12.8635 31.8655C13.0561 31.8655 14.9685 35.1629 15.3672 36.2725C15.7703 37.3776 16.3346 38.9461 17.2662 40.6795C18.1978 42.4129 19.6758 43.2907 21.0553 43.3041C21.0553 43.3041 21.0956 43.3041 21.1718 43.2996C21.2031 43.2996 21.23 43.2996 21.2613 43.2952C21.2793 43.2907 21.2972 43.2907 21.3151 43.2907C21.4674 43.2863 21.6465 43.2729 21.8436 43.2506C22.0227 43.2328 22.2332 43.215 22.4661 43.1838C26.8062 42.6268 39.8172 39.4496 43.0017 21.0908Z" fill="white"/>
<path fill-rule="evenodd" clip-rule="evenodd" d="M21.3242 43.2862C21.4541 43.2773 21.6333 43.2684 21.8527 43.2461C21.6512 43.2684 21.4765 43.2817 21.3242 43.2862Z" fill="#040000"/>
<path d="M82.3578 54.444C81.3232 54.64 79.657 54.9074 77.3504 55.2461C75.0438 55.5803 72.3027 55.7496 69.1272 55.7496C65.7502 55.7496 62.8568 55.4332 60.4562 54.8005C58.051 54.1677 56.0759 53.1384 54.5262 51.7169C52.9765 50.2954 51.8344 48.4373 51.0998 46.1424C50.3653 43.852 49.998 41.0447 49.998 37.7205V35.6485C49.998 29.2853 51.4985 24.6376 54.4993 21.7145C57.5001 18.7913 61.8984 17.3253 67.703 17.3253C71.1606 17.3253 74.0226 17.8378 76.2845 18.8671C78.5508 19.8964 80.3378 21.2689 81.6501 22.9889C82.9624 24.7089 83.8851 26.6963 84.4225 28.9466C84.96 31.2014 85.2287 33.5319 85.2287 35.9426C85.2287 36.9318 84.8928 37.6715 84.2165 38.1661C83.5402 38.6608 82.7474 38.9058 81.8338 38.9058H61.6296V40.0332C61.6296 41.8513 61.7282 43.4643 61.9297 44.868C62.1268 46.2716 62.5164 47.448 63.0942 48.3972C63.6675 49.3463 64.4827 50.0593 65.5397 50.5316C66.5922 51.0039 67.9538 51.2446 69.6244 51.2446C70.5784 51.2446 71.4697 51.2356 72.3072 51.2134C73.1403 51.1911 74.0361 51.1554 74.9901 51.0931C75.9441 51.0307 76.9876 50.9638 78.1208 50.8836C79.2539 50.8034 80.5931 50.6876 82.1428 50.5271C82.8191 50.4469 83.3163 50.6073 83.6343 50.9995C83.9523 51.3961 84.109 51.8506 84.109 52.363C84.109 52.8354 83.9881 53.2631 83.7507 53.6374C83.4909 54.0207 83.0341 54.288 82.3578 54.444ZM73.6554 32.9793C73.6554 31.3172 73.5837 29.7888 73.4449 28.3852C73.306 26.9815 73.0194 25.765 72.5804 24.7401C72.1415 23.7108 71.5369 22.9132 70.762 22.3383C69.9872 21.7635 68.9436 21.4783 67.6313 21.4783C66.3593 21.4783 65.3381 21.7769 64.5633 22.3695C63.7884 22.9622 63.1928 23.7732 62.7762 24.8025C62.3597 25.8319 62.0686 27.0484 61.9118 28.4475C61.7506 29.8512 61.6744 31.3618 61.6744 32.9838V35.2385H73.6554V32.9793ZM113.826 51.3604C114.462 51.2401 114.95 51.3916 115.286 51.806C115.622 52.2204 115.792 52.666 115.792 53.1384C115.792 53.5751 115.672 53.9405 115.434 54.2346C115.197 54.5331 114.74 54.796 114.064 55.0366C113.826 55.1168 113.459 55.206 112.962 55.304C112.465 55.402 111.887 55.4911 111.233 55.5714C110.579 55.6516 109.88 55.7095 109.146 55.7496C108.411 55.7897 107.686 55.8075 106.969 55.8075C102.759 55.8075 99.7089 54.9564 97.8188 53.2587C95.9332 51.5565 94.9882 48.6913 94.9882 44.6586V22.3071H90.6392C89.9629 22.3071 89.4792 22.0888 89.1791 21.6566C88.879 21.2199 88.7312 20.7475 88.7312 20.2351C88.7312 19.7227 88.879 19.2681 89.1791 18.8716C89.4792 18.475 89.9629 18.2789 90.6392 18.2789H94.9882V13.5912C94.9882 12.7623 95.1584 12.0182 95.4943 11.3676C95.8302 10.717 96.2781 10.1734 96.8334 9.73671C97.3888 9.30002 98.0248 8.97473 98.7414 8.75638C99.4581 8.53804 100.193 8.4311 100.945 8.4311C101.738 8.4311 102.504 8.5425 103.238 8.75638C103.973 8.97473 104.627 9.30002 105.204 9.73671C105.782 10.1734 106.239 10.717 106.575 11.3676C106.911 12.0182 107.081 12.7623 107.081 13.5912V18.2744H113.934C114.61 18.2744 115.094 18.4705 115.394 18.8671C115.694 19.2637 115.842 19.7182 115.842 20.2306C115.842 20.7431 115.694 21.2199 115.394 21.6521C115.094 22.0888 114.61 22.3027 113.934 22.3027H107.081V44.5382C107.081 45.9597 107.13 47.1272 107.229 48.0362C107.327 48.9453 107.489 49.6671 107.704 50.2019C107.923 50.7366 108.219 51.102 108.599 51.298C108.976 51.4941 109.441 51.5966 110.001 51.5966C110.875 51.5966 111.618 51.5788 112.236 51.5387C112.863 51.503 113.387 51.4406 113.826 51.3604ZM155.489 38.5538C155.489 44.565 153.948 48.9319 150.871 51.659C147.789 54.3861 143.431 55.7496 137.788 55.7496C135.007 55.7496 132.521 55.4154 130.34 54.7425C128.154 54.0697 126.318 53.0403 124.826 51.659C123.335 50.2776 122.193 48.4952 121.4 46.3207C120.603 44.1461 120.209 41.5572 120.209 38.5538V34.579C120.209 31.5757 120.607 28.9734 121.4 26.781C122.193 24.5886 123.339 22.7973 124.826 21.4159C126.318 20.0346 128.154 19.0052 130.34 18.3324C132.525 17.6595 135.007 17.3253 137.788 17.3253C143.431 17.3253 147.789 18.6889 150.871 21.4159C153.948 24.143 155.489 28.5322 155.489 34.579V38.5538ZM143.508 34.579C143.508 32.048 143.369 29.9359 143.091 28.2337C142.813 26.5359 142.424 25.1902 141.927 24.201C141.429 23.2117 140.825 22.5121 140.108 22.0977C139.392 21.6833 138.617 21.4739 137.784 21.4739C136.951 21.4739 136.185 21.6833 135.49 22.0977C134.796 22.5121 134.201 23.2162 133.703 24.201C133.206 25.1902 132.821 26.5359 132.543 28.2337C132.266 29.9359 132.127 32.048 132.127 34.579V38.5538C132.127 41.1249 132.266 43.2505 132.543 44.9304C132.821 46.6103 133.206 47.956 133.703 48.9631C134.201 49.9701 134.796 50.6742 135.49 51.0663C136.185 51.4629 136.951 51.659 137.784 51.659C138.617 51.659 139.392 51.4584 140.108 51.0663C140.825 50.6697 141.429 49.9701 141.927 48.9631C142.424 47.956 142.809 46.6103 143.091 44.9304C143.369 43.2505 143.508 41.1249 143.508 38.5538V34.579ZM169.019 65.0003C168.222 65.0003 167.469 64.9023 166.753 64.7017C166.036 64.5012 165.391 64.1982 164.814 63.7838C164.236 63.3694 163.779 62.8436 163.443 62.2108C163.107 61.5781 162.937 60.8473 162.937 60.0185V22.423C162.937 21.6343 163.094 20.9391 163.412 20.3465C163.73 19.7538 164.155 19.2503 164.693 18.8359C165.23 18.4215 165.844 18.114 166.538 17.918C167.232 17.7219 167.94 17.6194 168.652 17.6194C169.803 17.6194 170.815 17.8467 171.693 18.3012C172.566 18.7557 173.243 19.3216 173.717 19.99C175.388 19.0409 177.126 18.3591 178.931 17.9447C180.74 17.5303 182.478 17.3209 184.144 17.3209C186.209 17.3209 188.086 17.6194 189.779 18.2121C191.467 18.8047 192.887 19.785 194.038 21.1486C195.189 22.5121 196.085 24.3034 196.721 26.5136C197.357 28.7283 197.675 31.4554 197.675 34.6949V37.364C197.675 40.6838 197.276 43.4733 196.484 45.7235C195.686 47.9783 194.558 49.7964 193.089 51.1777C191.619 52.5591 189.819 53.5572 187.696 54.1722C185.569 54.7871 183.195 55.0901 180.575 55.0901C179.777 55.0901 178.855 55.05 177.802 54.9698C176.75 54.8896 175.805 54.8094 174.972 54.7336V60.0096C174.972 60.8384 174.801 61.5692 174.465 62.2019C174.13 62.8347 173.682 63.356 173.126 63.7749C172.571 64.1893 171.935 64.4968 171.218 64.6928C170.506 64.9023 169.772 65.0003 169.019 65.0003ZM179.625 50.7098C180.458 50.7098 181.233 50.5316 181.95 50.1751C182.666 49.8186 183.302 49.1591 183.858 48.1877C184.413 47.2208 184.852 45.8661 185.17 44.1238C185.488 42.386 185.645 40.1312 185.645 37.364V34.6949C185.645 32.1238 185.515 30.0116 185.255 28.3495C184.995 26.6874 184.65 25.3773 184.211 24.4059C183.773 23.439 183.226 22.7661 182.572 22.3918C181.918 22.0175 181.211 21.8304 180.458 21.8304C179.661 21.8304 178.797 21.9017 177.865 22.0398C176.929 22.1779 175.926 22.4453 174.855 22.8419V50.4157C175.648 50.4959 176.463 50.5628 177.301 50.6252C178.138 50.6786 178.913 50.7098 179.625 50.7098ZM218.067 9.55847C218.067 10.4675 217.888 11.2473 217.53 11.9023C217.171 12.5529 216.697 13.0966 216.101 13.5332C215.505 13.9699 214.829 14.2952 214.076 14.5136C213.32 14.7319 212.545 14.8389 211.752 14.8389C210.955 14.8389 210.18 14.7319 209.427 14.5136C208.67 14.2952 208.008 13.9699 207.43 13.5332C206.852 13.101 206.386 12.5529 206.028 11.9023C205.67 11.2518 205.49 10.472 205.49 9.55847V9.50054C205.49 8.63162 205.67 7.86964 206.028 7.21906C206.386 6.56848 206.852 6.01147 207.43 5.55696C208.008 5.10245 208.67 4.76824 209.427 4.5499C210.18 4.33155 210.955 4.22461 211.752 4.22461C212.545 4.22461 213.32 4.33601 214.076 4.5499C214.829 4.76824 215.505 5.10245 216.101 5.55696C216.697 6.01147 217.176 6.56402 217.53 7.21906C217.888 7.86964 218.067 8.63162 218.067 9.50054V9.55847ZM217.772 50.3534C217.772 51.2223 217.601 51.9753 217.265 52.6081C216.929 53.2409 216.482 53.7756 215.926 54.2078C215.371 54.6445 214.726 54.9698 213.991 55.1881C213.257 55.4065 212.491 55.5134 211.698 55.5134C210.901 55.5134 210.148 55.402 209.432 55.1881C208.715 54.9698 208.093 54.6445 207.555 54.2078C207.018 53.7711 206.583 53.2409 206.243 52.6081C205.907 51.9753 205.737 51.2223 205.737 50.3534V22.7216C205.737 21.0238 206.341 19.7494 207.555 18.8983C208.769 18.0472 210.148 17.6239 211.698 17.6239C212.491 17.6239 213.257 17.7353 213.991 17.9492C214.726 18.1675 215.371 18.4839 215.926 18.8983C216.482 19.3127 216.929 19.8474 217.265 20.498C217.601 21.1486 217.772 21.8927 217.772 22.7216V50.3534ZM252.518 55.4555C251.367 55.4555 250.364 55.2193 249.509 54.7425C248.653 54.2702 248.008 53.6553 247.574 52.9022C246.302 53.6508 244.654 54.3148 242.625 54.8896C240.6 55.4644 238.473 55.7496 236.247 55.7496C232.749 55.7496 230.079 54.8807 228.23 53.1384C226.38 51.4005 225.457 48.7893 225.457 45.3091V43.8921C225.457 41.4413 225.905 39.494 226.796 38.0503C227.692 36.6065 228.933 35.5103 230.523 34.7573C232.113 34.0087 233.998 33.523 236.184 33.3046C238.37 33.0863 240.775 32.9793 243.395 32.9793H246.315V30.9652C246.315 29.2274 246.203 27.7836 245.988 26.6384C245.769 25.4932 245.393 24.5842 244.855 23.9113C244.318 23.2385 243.615 22.7661 242.741 22.4898C241.868 22.2136 240.775 22.0754 239.463 22.0754C237.792 22.0754 236.166 22.1245 234.576 22.2225C232.986 22.3205 231.217 22.4676 229.273 22.6681C228.718 22.7483 228.288 22.6012 227.992 22.2225C227.692 21.8482 227.544 21.4427 227.544 21.006C227.544 20.6094 227.643 20.2752 227.844 19.9989C228.042 19.7227 228.44 19.4865 229.036 19.286C229.591 19.0899 230.326 18.8805 231.239 18.6621C232.153 18.4438 233.197 18.2388 234.37 18.0383C235.544 17.8422 236.802 17.6729 238.155 17.5347C239.507 17.3966 240.896 17.3253 242.329 17.3253C245.191 17.3253 247.623 17.5749 249.63 18.065C251.636 18.5596 253.253 19.3394 254.489 20.4089C255.721 21.4783 256.617 22.882 257.172 24.6198C257.727 26.3621 258.005 28.4743 258.005 30.9652V50.8302C258.005 51.5788 257.844 52.2427 257.526 52.8175C257.208 53.3924 256.8 53.8736 256.303 54.2702C255.806 54.6668 255.228 54.9609 254.574 55.1614C253.92 55.353 253.235 55.4555 252.518 55.4555ZM246.678 36.2991H243.458C242.307 36.2991 241.312 36.357 240.479 36.4773C239.646 36.5976 238.948 36.8917 238.392 37.3685C237.837 37.8408 237.42 38.5538 237.143 39.5029C236.865 40.4521 236.726 41.7577 236.726 43.4153V44.8992C236.726 46.2449 236.825 47.3233 237.026 48.1298C237.223 48.9408 237.492 49.5735 237.832 50.0281C238.168 50.4826 238.558 50.7811 238.992 50.9193C239.431 51.0574 239.888 51.1287 240.363 51.1287C241.675 51.1287 242.916 50.9817 244.089 50.6831C245.263 50.3845 246.123 50.0815 246.683 49.7652V36.2991H246.678Z" fill="url(#paint1_linear_772_7948)"/>
</g>
<defs>
<linearGradient id="paint0_linear_772_7948" x1="0" y1="27.8748" x2="42.2535" y2="27.8748" gradientUnits="userSpaceOnUse">
<stop stop-color="#3C9AD6"/>
<stop offset="1" stop-color="#4ABFDF"/>
</linearGradient>
<linearGradient id="paint1_linear_772_7948" x1="49.9932" y1="34.6108" x2="258.002" y2="34.6108" gradientUnits="userSpaceOnUse">
<stop stop-color="#3C9AD6"/>
<stop offset="1" stop-color="#4ABFDF"/>
</linearGradient>
<clipPath id="clip0_772_7948">
<rect width="258" height="65" fill="white"/>
</clipPath>
</defs>
</svg>
