<svg width="178" height="76" viewBox="0 0 178 76" fill="none" xmlns="http://www.w3.org/2000/svg">
<g filter="url(#filter0_d_1339_7836)">
<rect x="4" y="4" width="170" height="68" rx="10" fill="#017ACD"/>
</g>
<path d="M72.064 32.336C72.064 33.68 73.096 34.448 74.608 34.448C76.12 34.448 77.2 33.68 77.2 32.336C77.2 30.992 76.12 30.224 74.608 30.224C73.096 30.224 72.064 30.992 72.064 32.336ZM81.232 37.808L81.424 40.04C76.96 40.88 71.992 40.952 68.344 40.952L67.96 38.432C69.472 38.432 71.224 38.432 73.048 38.384V36.68C70.696 36.176 69.112 34.52 69.112 32.336C69.112 29.696 71.416 27.848 74.608 27.848C77.824 27.848 80.128 29.696 80.128 32.336C80.128 34.496 78.568 36.152 76.216 36.68V38.264C77.92 38.168 79.648 38.048 81.232 37.808ZM74.008 42.392V46.16H86.296V48.68H70.84V42.392H74.008ZM85.552 33.896H88.336V36.512H85.552V43.832H82.384V26.96H85.552V33.896ZM98.3541 40.664V44.048H102.218V40.664H98.3541ZM105.338 44.048H110.186V46.64H90.1461V44.048H95.2341V40.664H92.4741V33.248H104.81V30.896H92.4501V28.376H107.93V35.72H95.6181V38.144H108.434V40.664H105.338V44.048Z" fill="white"/>
<defs>
<filter id="filter0_d_1339_7836" x="0" y="0" width="178" height="76" filterUnits="userSpaceOnUse" color-interpolation-filters="sRGB">
<feFlood flood-opacity="0" result="BackgroundImageFix"/>
<feColorMatrix in="SourceAlpha" type="matrix" values="0 0 0 0 0 0 0 0 0 0 0 0 0 0 0 0 0 0 127 0" result="hardAlpha"/>
<feOffset/>
<feGaussianBlur stdDeviation="2"/>
<feComposite in2="hardAlpha" operator="out"/>
<feColorMatrix type="matrix" values="0 0 0 0 0 0 0 0 0 0 0 0 0 0 0 0 0 0 0.25 0"/>
<feBlend mode="normal" in2="BackgroundImageFix" result="effect1_dropShadow_1339_7836"/>
<feBlend mode="normal" in="SourceGraphic" in2="effect1_dropShadow_1339_7836" result="shape"/>
</filter>
</defs>
</svg>
